<?xml version="1.0" encoding="UTF-8"?>
<svg version="1.1" xmlns="http://www.w3.org/2000/svg" width="748" height="751">
<path d="M0 0 C246.84 0 493.68 0 748 0 C748 247.83 748 495.66 748 751 C501.16 751 254.32 751 0 751 C0 503.17 0 255.34 0 0 Z " fill="#000000" transform="translate(0,0)"/>
<path d="M0 0 C-3.96662569 1.32220856 -6.06596141 -0.08004434 -9.6875 -1.6875 C-33.4422863 -11.71548217 -61.0364365 -13.20952961 -86 -7 C-86.77859375 -6.86851562 -87.5571875 -6.73703125 -88.359375 -6.6015625 C-115.2553224 -2.05149621 -141.76756202 18.20145354 -157.48583984 39.87475586 C-163.22154266 48.13356309 -167.82288981 56.86749729 -172 66 C-172.5053125 67.10214844 -173.010625 68.20429688 -173.53125 69.33984375 C-175.31543215 73.78606364 -176.62336138 78.41120459 -178 83 C-159.52 83 -141.04 83 -122 83 C-122 94.88 -122 106.76 -122 119 C-129.26 119 -136.52 119 -144 119 C-144 120.65 -144 122.3 -144 124 C-136.74 124 -129.48 124 -122 124 C-122 132.25 -122 140.5 -122 149 C-129.26 149 -136.52 149 -144 149 C-144 150.65 -144 152.3 -144 154 C-136.74 154 -129.48 154 -122 154 C-121.505 160.93 -121.505 160.93 -121 168 C-119.35 167.01 -117.7 166.02 -116 165 C-115.34 165.33 -114.68 165.66 -114 166 C-119.75 170 -119.75 170 -122 170 C-122 175.28 -122 180.56 -122 186 C-120.02 185.34 -118.04 184.68 -116 184 C-117 185 -118 186 -119 187 C-119.433125 187.515625 -119.86625 188.03125 -120.3125 188.5625 C-122.66400304 190.56563222 -125.04995466 191.13233961 -128 192 C-129.11375 192.37125 -130.2275 192.7425 -131.375 193.125 C-132.674375 193.558125 -132.674375 193.558125 -134 194 C-133.01 193.01 -132.02 192.02 -131 191 C-135.19920237 190.95046313 -139.39824869 190.91421589 -143.59765625 190.89013672 C-145.02542078 190.88009573 -146.45316483 190.86646019 -147.88085938 190.84912109 C-149.93624941 190.82478848 -151.99136692 190.81349798 -154.046875 190.8046875 C-155.28276367 190.79421387 -156.51865234 190.78374023 -157.79199219 190.77294922 C-160.88824202 190.99209019 -162.33295623 191.5921872 -165 193 C-165.99 192.67 -166.98 192.34 -168 192 C-167.34 191.67 -166.68 191.34 -166 191 C-180.19 191 -194.38 191 -209 191 C-209.33 192.98 -209.66 194.96 -210 197 C-210.66 197 -211.32 197 -212 197 C-212 190.73 -212 184.46 -212 178 C-214.31 180.31 -216.62 182.62 -219 185 C-219 184.01 -219 183.02 -219 182 C-217.50170898 180.66577148 -217.50170898 180.66577148 -215.55859375 179.18359375 C-212.00756815 175.78287611 -211.41954233 173.27791767 -211.09765625 168.41015625 C-211.05145227 165.96134531 -211.04066699 163.51164947 -211.0625 161.0625 C-211.04638672 159.80630859 -211.03027344 158.55011719 -211.01367188 157.25585938 C-210.97846577 154.16945724 -210.97485554 151.08640261 -211 148 C-207.125 148.875 -207.125 148.875 -206 150 C-206 148.68 -206 147.36 -206 146 C-205.01 145.01 -205.01 145.01 -204 144 C-204.78375 143.9175 -205.5675 143.835 -206.375 143.75 C-209 143 -209 143 -210.14987183 141.30279541 C-211.17236188 138.5331126 -211.24035084 136.35788694 -211.22705078 133.40527344 C-211.22689972 132.28441345 -211.22674866 131.16355347 -211.22659302 130.00872803 C-211.21627045 128.80444153 -211.20594788 127.60015503 -211.1953125 126.359375 C-211.1924826 125.12205627 -211.18965271 123.88473755 -211.18673706 122.60992432 C-211.177442 119.32848459 -211.15948705 116.04724246 -211.1373291 112.76586914 C-211.11683048 109.41424378 -211.10789724 106.06260993 -211.09765625 102.7109375 C-211.07730163 96.14046765 -211.03815122 89.57048717 -211 83 C-200.77 83 -190.54 83 -180 83 C-179.67 80.69 -179.34 78.38 -179 76 C-172.60939651 56.54072295 -162.02444423 39.84798673 -148 25 C-147.32582031 24.26136719 -146.65164062 23.52273437 -145.95703125 22.76171875 C-135.13369046 11.3291843 -122.24175398 3.43868318 -108 -3 C-107.14277344 -3.39703125 -106.28554687 -3.7940625 -105.40234375 -4.203125 C-100.04880374 -6.5171766 -94.47638172 -8.09675299 -88.875 -9.6875 C-88.12234863 -9.90237061 -87.36969727 -10.11724121 -86.59423828 -10.33862305 C-58.35239236 -18.08175576 -25.79669149 -13.25226377 0 0 Z " fill="#FAFAFA" transform="translate(275,223)"/>
<path d="M0 0 C0.99 0.495 0.99 0.495 2 1 C3.41882881 1.11747478 4.84271414 1.17685428 6.26611328 1.20532227 C7.14687531 1.22526749 8.02763733 1.24521271 8.93508911 1.26576233 C9.88721283 1.28247482 10.83933655 1.29918732 11.8203125 1.31640625 C12.79410858 1.33718735 13.76790466 1.35796844 14.77120972 1.37937927 C17.88906647 1.44488598 21.00700903 1.50376497 24.125 1.5625 C26.23568604 1.60568415 28.34636333 1.6492984 30.45703125 1.69335938 C35.6379295 1.80056847 40.81891356 1.90233278 46 2 C44.51911112 5.77948596 42.84952557 9.3850182 41 13 C41.99 13.495 41.99 13.495 43 14 C42.67 14.99 42.34 15.98 42 17 C41.39148193 17.10957031 40.78296387 17.21914063 40.15600586 17.33203125 C36.79016239 18.37482909 36.13904216 20.65202866 34.50390625 23.6875 C34.18848373 24.2640332 33.87306122 24.84056641 33.54808044 25.43457031 C32.54031339 27.28320988 31.55122151 29.1411168 30.5625 31 C29.90161604 32.22071631 29.23951844 33.44077639 28.57617188 34.66015625 C27.29227254 37.02175449 26.022118 39.38913368 24.75830078 41.76171875 C22.86030445 45.25727878 20.84028655 48.66373041 18.73022461 52.03515625 C17.71238377 54.77390016 18.13265848 56.22028999 19 59 C20.00378397 61.087996 21.08318272 63.14033358 22.2109375 65.1640625 C22.53530792 65.74994644 22.85967834 66.33583038 23.19387817 66.93946838 C24.24767253 68.83839348 25.31116785 70.73168324 26.375 72.625 C27.10137548 73.9298362 27.82728457 75.23493213 28.55273438 76.5402832 C33.22894557 84.93450086 37.98525607 93.28219079 42.89990234 101.53955078 C46 106.79152345 46 106.79152345 46 109 C37.09 109 28.18 109 19 109 C18.67 109.66 18.34 110.32 18 111 C18 110.34 18 109.68 18 109 C8.45312697 108.8745502 -1.09175705 108.81091682 -10.63945293 108.82121754 C-15.07548147 108.82416725 -19.50947035 108.8076611 -23.94506836 108.74291992 C-51.97702984 108.23260476 -51.97702984 108.23260476 -77.0987854 119.73641968 C-79.97063768 121.6451027 -82.73685022 122.87695974 -86 124 C-86.99 123.67 -87.98 123.34 -89 123 C-88.39003174 122.71278076 -87.78006348 122.42556152 -87.15161133 122.12963867 C-84.37062942 120.8182835 -81.59155574 119.50293191 -78.8125 118.1875 C-77.85279297 117.73568359 -76.89308594 117.28386719 -75.90429688 116.81835938 C-74.97294922 116.37685547 -74.04160156 115.93535156 -73.08203125 115.48046875 C-72.22843018 115.07723389 -71.3748291 114.67399902 -70.49536133 114.25854492 C-67.91439049 112.95682252 -65.460121 111.51614348 -63 110 C-64.485 109.505 -64.485 109.505 -66 109 C-65.58601784 103.61823197 -64.79771099 101.6751053 -61 98 C-59.58024855 95.83140419 -59.58024855 95.83140419 -58.37109375 93.46484375 C-57.89824951 92.5816748 -57.42540527 91.69850586 -56.93823242 90.78857422 C-56.44299072 89.84771973 -55.94774902 88.90686523 -55.4375 87.9375 C-52.30095571 82.05189279 -49.15518273 76.19129239 -45.734375 70.46484375 C-45.22205322 69.60576416 -44.70973145 68.74668457 -44.18188477 67.86157227 C-43.20274474 66.23233829 -42.21396446 64.60885042 -41.21459961 62.99194336 C-40.55729858 61.89378296 -40.55729858 61.89378296 -39.88671875 60.7734375 C-39.49701904 60.13841309 -39.10731934 59.50338867 -38.70581055 58.84912109 C-37.78162068 56.4278779 -38.09661102 55.41235577 -39 53 C-39.79560499 51.34389593 -40.64133235 49.71148235 -41.51953125 48.09765625 C-42.04184326 47.13456543 -42.56415527 46.17147461 -43.10229492 45.17919922 C-43.94884644 43.63643311 -43.94884644 43.63643311 -44.8125 42.0625 C-45.38911377 41.00305176 -45.96572754 39.94360352 -46.55981445 38.85205078 C-50.98607464 30.75463026 -55.53559615 22.73087047 -60.21606445 14.77758789 C-60.68488037 13.97184326 -61.15369629 13.16609863 -61.63671875 12.3359375 C-62.04623779 11.64032715 -62.45575684 10.9447168 -62.87768555 10.22802734 C-64 8 -64 8 -66 2 C-44.22 2 -22.44 2 0 2 C0 1.34 0 0.68 0 0 Z " fill="#FBFBFB" transform="translate(224,304)"/>
<path d="M0 0 C4.06654167 1.35551389 4.85915999 3.90475944 6.75 7.5 C10.92473402 15.18616724 15.35874689 22.69734092 19.875 30.1875 C20.52952148 31.27417969 21.18404297 32.36085938 21.85839844 33.48046875 C23.04644976 35.45131594 24.23530432 37.42167937 25.42529297 39.39135742 C25.94494629 40.25220947 26.46459961 41.11306152 27 42 C27.56219238 42.85376221 28.12438477 43.70752441 28.70361328 44.5871582 C30 47 30 47 30 51 C31.485 51.495 31.485 51.495 33 52 C34.57470703 54.26220703 34.57470703 54.26220703 36.2578125 57.2578125 C36.87881836 58.3509375 37.49982422 59.4440625 38.13964844 60.5703125 C38.46380737 61.15071289 38.78796631 61.73111328 39.12194824 62.32910156 C40.13087909 64.13552612 41.15016334 65.93570766 42.17285156 67.734375 C43.18980407 69.52305355 44.20623266 71.31199602 45.21936035 73.10284424 C47.67192428 77.43772574 50.1742531 81.73734157 52.75 86 C53.76126953 87.67642578 53.76126953 87.67642578 54.79296875 89.38671875 C56.5111903 92.21025721 58.24870398 95.0216073 59.98828125 97.83203125 C60.49842773 98.65896484 61.00857422 99.48589844 61.53417969 100.33789062 C62.53455533 101.95766818 63.53896213 103.5749647 64.54785156 105.18945312 C64.99741211 105.91712891 65.44697266 106.64480469 65.91015625 107.39453125 C66.51549194 108.36676636 66.51549194 108.36676636 67.13305664 109.35864258 C68 111 68 111 68 113 C38.3 113 8.6 113 -22 113 C-22.33 112.34 -22.66 111.68 -23 111 C-23.66 111 -24.32 111 -25 111 C-25.33 111.66 -25.66 112.32 -26 113 C-39.2 113 -52.4 113 -66 113 C-60.3765324 101.7530648 -60.3765324 101.7530648 -57.46875 96.890625 C-56.82977783 95.81772217 -56.19080566 94.74481934 -55.5324707 93.6394043 C-54.86175537 92.52090088 -54.19104004 91.40239746 -53.5 90.25 C-52.78762162 89.05597383 -52.07563239 87.8617154 -51.36401367 86.66723633 C-49.92682029 84.25536729 -48.48814283 81.84439404 -47.04833984 79.43408203 C-44.12156485 74.52728619 -41.21585919 69.60817473 -38.3125 64.6875 C-37.25657529 62.89970127 -36.20058603 61.11194065 -35.14453125 59.32421875 C-34.62713379 58.44813965 -34.10973633 57.57206055 -33.57666016 56.66943359 C-30.34863889 51.20409069 -27.11909461 45.7396475 -23.88964844 40.27514648 C-21.09337333 35.54341203 -18.29795668 30.8111735 -15.50390625 26.078125 C-14.92769531 25.10230469 -14.35148437 24.12648438 -13.7578125 23.12109375 C-12.6676837 21.27490787 -11.57781816 19.4285665 -10.48828125 17.58203125 C-7.01797038 11.70575742 -3.51840517 5.84760033 0 0 Z " fill="#FCFCFC" transform="translate(434,300)"/>
<path d="M0 0 C0.80308594 -0.00773437 1.60617187 -0.01546875 2.43359375 -0.0234375 C16.76351535 0.02301281 28.92626016 5.82252842 39.5 15.25 C38.09490901 18.43259851 36.43078658 20.56348466 33.96826172 23.00878906 C33.24766571 23.72923401 32.5270697 24.44967896 31.78463745 25.19195557 C31.00750397 25.95876648 30.23037048 26.72557739 29.4296875 27.515625 C28.63345978 28.30902283 27.83723206 29.10242065 27.01687622 29.91986084 C24.47424052 32.45130703 21.92473652 34.97570803 19.375 37.5 C17.64928247 39.21568617 15.92401645 40.93182662 14.19921875 42.6484375 C9.97136968 46.85424248 5.73786131 51.05428507 1.5 55.25 C5.80627256 60.39829744 10.32311931 65.20752072 15.0859375 69.93359375 C15.78772125 70.63396255 16.489505 71.33433136 17.21255493 72.05592346 C19.43101136 74.26883027 21.65293815 76.47821416 23.875 78.6875 C25.38955466 80.19703314 26.90387985 81.70679657 28.41796875 83.21679688 C32.10933099 86.89719702 35.80354069 90.57471957 39.5 94.25 C35.78649158 102.13437538 27.07666771 106.08880006 19.2421875 109.125 C4.43545385 114.34500101 -10.15619789 113.14778332 -24.4765625 106.96484375 C-38.37092507 99.93938437 -48.505567 88.47029256 -53.5 73.6875 C-58.12451259 58.41920924 -56.42304894 42.75890847 -49.3125 28.5625 C-41.17356212 14.99760354 -28.79338302 5.62977156 -13.75390625 1.12890625 C-9.16046077 0.03512557 -4.7033719 -0.04529732 0 0 Z " fill="#FCFCFC" transform="translate(555.5,303.75)"/>
<path d="M0 0 C0.98643997 0.02028259 1.97287994 0.04056519 2.98921204 0.0614624 C5.07292403 0.10692977 7.15652656 0.15768251 9.23999023 0.21337891 C12.39748132 0.29613329 15.55488809 0.35832334 18.71289062 0.41796875 C20.7461227 0.46490807 22.7793275 0.51304722 24.8125 0.5625 C25.74309738 0.58032532 26.67369476 0.59815063 27.63249207 0.61651611 C42.73368662 1.05785577 55.67674303 4.28278991 66.73828125 15.046875 C75.63525795 25.30476591 78.83870521 36.16038509 78.23828125 49.5390625 C77.21044083 61.66244029 70.58274951 71.02899256 61.73828125 79.046875 C58.46934562 81.6496879 55.35927574 83.61305115 51.30078125 84.69921875 C45.61627317 86.30231935 43.09779115 88.37991331 40.24023438 93.43798828 C37.7796606 98.16838492 35.49049951 102.6989123 34.73828125 108.046875 C31.63205923 109.04530351 29.83855048 108.98635052 26.73828125 108.046875 C25.07308606 107.70626689 23.40670659 107.37129104 21.73828125 107.046875 C21.73828125 108.036875 21.73828125 109.026875 21.73828125 110.046875 C20.74828125 109.551875 20.74828125 109.551875 19.73828125 109.046875 C19.94453125 108.469375 20.15078125 107.891875 20.36328125 107.296875 C20.83741974 104.45204404 20.06911767 103.56067714 18.73828125 101.046875 C18.35537663 99.05577099 18.0122351 97.05586987 17.73828125 95.046875 C17.07828125 95.046875 16.41828125 95.046875 15.73828125 95.046875 C15.82207031 95.73394531 15.90585937 96.42101562 15.9921875 97.12890625 C16.14494141 98.48048828 16.14494141 98.48048828 16.30078125 99.859375 C16.45740234 101.19935547 16.45740234 101.19935547 16.6171875 102.56640625 C16.73828125 105.046875 16.73828125 105.046875 15.73828125 108.046875 C5.17828125 108.046875 -5.38171875 108.046875 -16.26171875 108.046875 C-17.26171875 104.046875 -17.26171875 104.046875 -16.26171875 102.046875 C-15.27171875 102.046875 -14.28171875 102.046875 -13.26171875 102.046875 C-13.26171875 101.386875 -13.26171875 100.726875 -13.26171875 100.046875 C-12.60171875 100.046875 -11.94171875 100.046875 -11.26171875 100.046875 C-11.03484375 99.428125 -10.80796875 98.809375 -10.57421875 98.171875 C-8.78322339 95.27216823 -7.56875106 94.83768707 -4.26171875 94.046875 C-1.52833105 94.18379795 1.02985277 94.58781932 3.73828125 95.046875 C2.96188805 91.9723394 2.96188805 91.9723394 0.73828125 90.046875 C1.39828125 90.046875 2.05828125 90.046875 2.73828125 90.046875 C2.73828125 88.066875 2.73828125 86.086875 2.73828125 84.046875 C4.71828125 83.056875 4.71828125 83.056875 6.73828125 82.046875 C6.40828125 81.53125 6.07828125 81.015625 5.73828125 80.484375 C4.41817248 77.26660988 4.6058602 74.4898222 4.73828125 71.046875 C5.72828125 70.551875 5.72828125 70.551875 6.73828125 70.046875 C7.39041417 68.02224245 7.39041417 68.02224245 7.73828125 66.046875 C8.39828125 66.046875 9.05828125 66.046875 9.73828125 66.046875 C9.40828125 65.056875 9.07828125 64.066875 8.73828125 63.046875 C10.38828125 63.046875 12.03828125 63.046875 13.73828125 63.046875 C13.40828125 62.056875 13.07828125 61.066875 12.73828125 60.046875 C14.71828125 59.551875 14.71828125 59.551875 16.73828125 59.046875 C17.06828125 60.036875 17.39828125 61.026875 17.73828125 62.046875 C17.73828125 59.736875 17.73828125 57.426875 17.73828125 55.046875 C18.72828125 55.046875 19.71828125 55.046875 20.73828125 55.046875 C20.73828125 56.696875 20.73828125 58.346875 20.73828125 60.046875 C21.52203125 60.335625 22.30578125 60.624375 23.11328125 60.921875 C26.91397494 62.55074372 28.00317453 64.47459647 29.73828125 68.046875 C30.29515625 68.830625 30.85203125 69.614375 31.42578125 70.421875 C33.08033096 73.73097442 32.63796871 75.52991494 31.73828125 79.046875 C33.77069852 78.40707651 33.77069852 78.40707651 35.73828125 77.046875 C36.39383244 74.51954265 36.39383244 74.51954265 36.73828125 72.046875 C37.39828125 71.716875 38.05828125 71.386875 38.73828125 71.046875 C38.14015625 70.304375 37.54203125 69.561875 36.92578125 68.796875 C33.79231398 64.14143791 32.61627402 58.52817569 31.73828125 53.046875 C32.23328125 52.056875 32.23328125 52.056875 32.73828125 51.046875 C32.97382073 46.80716442 33.06674011 43.68509198 30.73828125 40.046875 C31.35703125 39.325 31.97578125 38.603125 32.61328125 37.859375 C35.82596239 33.60729703 37.04307455 30.38075769 36.73828125 25.046875 C35.74828125 25.376875 34.75828125 25.706875 33.73828125 26.046875 C34.23328125 28.026875 34.23328125 28.026875 34.73828125 30.046875 C32.73828125 28.671875 32.73828125 28.671875 30.73828125 27.046875 C30.73828125 26.386875 30.73828125 25.726875 30.73828125 25.046875 C29.74828125 25.046875 28.75828125 25.046875 27.73828125 25.046875 C27.24328125 26.531875 27.24328125 26.531875 26.73828125 28.046875 C26.73828125 27.056875 26.73828125 26.066875 26.73828125 25.046875 C26.07828125 25.046875 25.41828125 25.046875 24.73828125 25.046875 C24.73828125 23.396875 24.73828125 21.746875 24.73828125 20.046875 C23.72701172 20.79904297 23.72701172 20.79904297 22.6953125 21.56640625 C18.93449781 23.44929762 16.57852968 23.16129306 12.42578125 22.734375 C11.17152344 22.61449219 9.91726563 22.49460937 8.625 22.37109375 C7.67238281 22.26410156 6.71976562 22.15710938 5.73828125 22.046875 C2.49965191 29.97118083 -0.21954927 37.87974569 -2.47338867 46.13256836 C-3.66474462 50.39676628 -5.26278517 54.07789417 -7.26171875 58.046875 C-7.26171875 59.036875 -7.26171875 60.026875 -7.26171875 61.046875 C-6.60171875 61.046875 -5.94171875 61.046875 -5.26171875 61.046875 C-5.26171875 61.706875 -5.26171875 62.366875 -5.26171875 63.046875 C-4.62234375 63.15 -3.98296875 63.253125 -3.32421875 63.359375 C-2.64359375 63.58625 -1.96296875 63.813125 -1.26171875 64.046875 C-0.10216434 67.52553822 -0.26171875 70.39689177 -0.26171875 74.046875 C0.06828125 75.036875 0.39828125 76.026875 0.73828125 77.046875 C0.36328125 80.484375 0.36328125 80.484375 -1.26171875 84.046875 C-3.5040038 85.42609184 -5.69250374 86.33454299 -8.16796875 87.22265625 C-10.43517832 87.95436755 -10.43517832 87.95436755 -12.26171875 90.046875 C-15.88671875 89.671875 -15.88671875 89.671875 -19.26171875 89.046875 C-19.26171875 88.386875 -19.26171875 87.726875 -19.26171875 87.046875 C-18.60171875 87.046875 -17.94171875 87.046875 -17.26171875 87.046875 C-17.27332031 86.08265625 -17.28492188 85.1184375 -17.296875 84.125 C-17.30589844 82.86171875 -17.31492187 81.5984375 -17.32421875 80.296875 C-17.33582031 79.04390625 -17.34742188 77.7909375 -17.359375 76.5 C-17.28192902 73.76150999 -17.0895269 71.62807207 -16.26171875 69.046875 C-15.27171875 69.046875 -14.28171875 69.046875 -13.26171875 69.046875 C-12.76671875 68.056875 -12.76671875 68.056875 -12.26171875 67.046875 C-10.94171875 67.046875 -9.62171875 67.046875 -8.26171875 67.046875 C-8.26171875 66.386875 -8.26171875 65.726875 -8.26171875 65.046875 C-9.91171875 65.046875 -11.56171875 65.046875 -13.26171875 65.046875 C-13.26171875 65.706875 -13.26171875 66.366875 -13.26171875 67.046875 C-14.25171875 66.716875 -15.24171875 66.386875 -16.26171875 66.046875 C-16.26171875 62.086875 -16.26171875 58.126875 -16.26171875 54.046875 C-15.60171875 54.046875 -14.94171875 54.046875 -14.26171875 54.046875 C-14.92171875 53.716875 -15.58171875 53.386875 -16.26171875 53.046875 C-16.65600586 50.42724609 -16.65600586 50.42724609 -16.8515625 46.9453125 C-16.92487793 45.67526367 -16.99819336 44.40521484 -17.07373047 43.09667969 C-17.38513838 36.62369034 -17.62304004 30.14916993 -17.82421875 23.671875 C-17.86759133 22.3385336 -17.91121016 21.00520019 -17.95507812 19.671875 C-18.05969543 16.46361112 -18.16187713 13.25529043 -18.26171875 10.046875 C-19.91171875 10.706875 -21.56171875 11.366875 -23.26171875 12.046875 C-22.47796875 11.325 -21.69421875 10.603125 -20.88671875 9.859375 C-18.14922781 7.30548934 -18.14922781 7.30548934 -17.32421875 4.359375 C-16.26171875 2.046875 -16.26171875 2.046875 -13.83666992 0.90527344 C-9.14415581 -0.22146833 -4.80355599 -0.13236577 0 0 Z " fill="#FAFAFA" transform="translate(292.26171875,304.953125)"/>
<path d="M0 0 C29.37 0 58.74 0 89 0 C89 8.25 89 16.5 89 25 C88.34 25.66 87.68 26.32 87 27 C87.66 27 88.32 27 89 27 C89 29.97 89 32.94 89 36 C88.34 36 87.68 36 87 36 C86.835 35.29875 86.67 34.5975 86.5 33.875 C84.5877119 30.20978115 82.1404233 28.63692663 78.77734375 26.33203125 C77 25 77 25 76 23 C74.02 23 72.04 23 70 23 C70.59950296 26.68266103 71.24758891 30.34543185 72 34 C70.35 34.66 68.7 35.32 67 36 C67.495 38.475 67.495 38.475 68 41 C68.99 41 69.98 41 71 41 C71 42.32 71 43.64 71 45 C70.01 45.99 70.01 45.99 69 47 C68.195625 46.979375 67.39125 46.95875 66.5625 46.9375 C64.03844401 46.76745406 64.03844401 46.76745406 62.4375 48.0625 C58.57679128 53.26606393 55.84656004 59.20521707 53 65 C51.58312881 60.74938644 52.80679961 58.28148375 54 54 C53.34 54 52.68 54 52 54 C51.9071875 54.86625 51.9071875 54.86625 51.8125 55.75 C50.64892867 58.97219753 48.83073821 60.15672861 46 62 C44.68 62 43.36 62 42 62 C42 62.66 42 63.32 42 64 C39.36 64.33 36.72 64.66 34 65 C35.32 66.65 36.64 68.3 38 70 C37.01 70 36.02 70 35 70 C35 69.34 35 68.68 35 68 C33.02 68.495 33.02 68.495 31 69 C31.375 66.0625 31.375 66.0625 32 63 C34.46278801 61.768606 36.2795055 61.92840804 39 62 C39 61.34 39 60.68 39 60 C39.04640625 58.8965625 39.0928125 57.793125 39.140625 56.65625 C39.44834913 46.81265613 38.60427091 39.40640636 33 31 C32.92094936 28.66800612 32.91201231 26.33167378 33 24 C31.68 24.33 30.36 24.66 29 25 C28.61866701 26.9914056 28.28674418 28.99279077 28 31 C28.33 31.33 28.66 31.66 29 32 C29.40993446 35.23388051 29.51706306 38.4957907 29.6875 41.75 C29.74744141 42.6575 29.80738281 43.565 29.86914062 44.5 C30.11702648 49.14531305 30.30798033 52.79080982 28 57 C27.46375 56.505 26.9275 56.01 26.375 55.5 C23.40641555 53.62510456 21.44687573 53.76498575 18 54 C17.87625 54.94875 17.7525 55.8975 17.625 56.875 C17 60 17 60 15 62 C13.68 62 12.36 62 11 62 C11.16757812 62.62648438 11.33515625 63.25296875 11.5078125 63.8984375 C11.71148438 64.71570313 11.91515625 65.53296875 12.125 66.375 C12.33382812 67.18710937 12.54265625 67.99921875 12.7578125 68.8359375 C12.83773437 69.55007813 12.91765625 70.26421875 13 71 C12.01 71.99 12.01 71.99 11 73 C10.74994614 76.04182893 10.74994614 76.04182893 11 79 C11.33 79.33 11.66 79.66 12 80 C12.04063832 81.66617115 12.042721 83.33388095 12 85 C13.03060547 85.18175781 13.03060547 85.18175781 14.08203125 85.3671875 C14.98308594 85.53476562 15.88414062 85.70234375 16.8125 85.875 C17.70582031 86.03742188 18.59914063 86.19984375 19.51953125 86.3671875 C22 87 22 87 25 89 C26.78167779 89.34750991 28.57588779 89.63347535 30.375 89.875 C35.04435001 90.65424764 37.50550611 91.70519148 41 95 C42.96466413 96.06775224 44.96855359 97.06553465 47 98 C48.175625 98.556875 49.35125 99.11375 50.5625 99.6875 C53.72692559 100.89573523 55.67490863 101.30228103 59 101 C59 99.02 59 97.04 59 95 C57.865625 94.5875 56.73125 94.175 55.5625 93.75 C52 92 52 92 51.27734375 89.890625 C51.14005859 88.95476562 51.14005859 88.95476562 51 88 C51.66386719 87.98582031 52.32773437 87.97164063 53.01171875 87.95703125 C57.43461136 87.71813048 60.25041605 87.52630363 63.9375 84.9375 C66.05455002 81.92230755 67.05833207 79.40958517 67.93359375 75.8671875 C69 74 69 74 75 71 C79.62 71 84.24 71 89 71 C89 82.88 89 94.76 89 107 C84.38 107 79.76 107 75 107 C75.99 106.34 76.98 105.68 78 105 C74.59992715 104.24136301 71.41522756 103.85763977 67.93432617 103.79467773 C66.95368698 103.77473251 65.97304779 103.75478729 64.96269226 103.73423767 C63.9166835 103.71752518 62.87067474 103.70081268 61.79296875 103.68359375 C60.17217155 103.6524221 60.17217155 103.6524221 58.51863098 103.62062073 C55.07498389 103.55535964 51.63126205 103.49634925 48.1875 103.4375 C45.84960172 103.39429249 43.51171093 103.35067749 41.17382812 103.30664062 C35.44929722 103.19970228 29.72469235 103.09789273 24 103 C24 103.66 24 104.32 24 105 C25.98 105 27.96 105 30 105 C30 105.33 30 105.66 30 106 C20.09500687 107.41499902 10.00555401 107 0 107 C0 71.69 0 36.38 0 0 Z " fill="#FDFDFD" transform="translate(599,306)"/>
<path d="M0 0 C1.98 0 3.96 0 6 0 C6.495 1.485 6.495 1.485 7 3 C8.32338632 3.68620031 9.65949948 4.34786461 11 5 C13.24100871 6.53418689 15.01114732 8.10154971 17 10 C17 11.32 17 12.64 17 14 C17.99 14.495 17.99 14.495 19 15 C16.36 15.33 13.72 15.66 11 16 C11 16.66 11 17.32 11 18 C13.64 18 16.28 18 19 18 C19 26.91 19 35.82 19 45 C16.69 45 14.38 45 12 45 C12.33 44.01 12.66 43.02 13 42 C11.515 41.505 11.515 41.505 10 41 C9.34 41.99 8.68 42.98 8 44 C8.99 44 9.98 44 11 44 C9.72281689 47.83154933 8.50115384 48.13271795 5 50 C3.96875 50.37125 2.9375 50.7425 1.875 51.125 C-1.8852947 53.57736611 -2.05689899 55.67364192 -3.25 59.8359375 C-4.43198652 63.24646112 -5.77445999 64.42154425 -9 66 C-12.36248179 66.30427366 -15.63505099 66.23521974 -19 66 C-18.04362922 68.33779524 -17.46790368 69.71629369 -15.2734375 71.046875 C-14.64695312 71.27890625 -14.02046875 71.5109375 -13.375 71.75 C-12.26125 72.1625 -11.1475 72.575 -10 73 C-10.33 74.98 -10.66 76.96 -11 79 C-14.94915826 80.31638609 -17.31421265 79.79640097 -21.0390625 78.0234375 C-25.64789088 75.61803305 -30.21839182 73.17325417 -34.5625 70.3125 C-37.9386396 68.49457868 -41.25844485 67.82441046 -45 67 C-45.495 67.99 -45.495 67.99 -46 69 C-46.66 68.01 -47.32 67.02 -48 66 C-50.35317808 65.20695357 -50.35317808 65.20695357 -53 64.6875 C-57.79079008 63.3620941 -57.79079008 63.3620941 -59.625 60.1875 C-60.58119658 52.05982906 -60.58119658 52.05982906 -58.9375 49.0625 C-57.50947183 45.92083802 -58.36473982 43.30335295 -59 40 C-57.35 39.34 -55.7 38.68 -54 38 C-53.67 35.69 -53.34 33.38 -53 31 C-46.47692308 30.63076923 -46.47692308 30.63076923 -44.0625 32.5 C-43.711875 32.995 -43.36125 33.49 -43 34 C-41.21373472 30.94157169 -40.78358325 28.89680942 -40.98828125 25.375 C-41.03533203 24.50359375 -41.08238281 23.6321875 -41.13085938 22.734375 C-41.19080078 21.83203125 -41.25074219 20.9296875 -41.3125 20 C-41.36083984 19.09765625 -41.40917969 18.1953125 -41.45898438 17.265625 C-41.69220178 12.50966371 -41.69220178 12.50966371 -42.58276367 7.8515625 C-43.15097818 5.33000672 -42.30661782 4.1520764 -41 2 C-39.68 2 -38.36 2 -37 2 C-36.89042969 2.59167969 -36.78085937 3.18335938 -36.66796875 3.79296875 C-35.72708263 8.48210038 -34.62633672 11.95106422 -32 16 C-28.8769166 22.90365805 -29.35846703 30.73785816 -31 38 C-30.34 38.33 -29.68 38.66 -29 39 C-31 41 -31 41 -34.125 41.125 C-35.07375 41.08375 -36.0225 41.0425 -37 41 C-37.33 42.32 -37.66 43.64 -38 45 C-36.515 45.495 -36.515 45.495 -35 46 C-35 46.66 -35 47.32 -35 48 C-34.01 47.505 -34.01 47.505 -33 47 C-34.32 46.01 -35.64 45.02 -37 44 C-36.67 43.34 -36.34 42.68 -36 42 C-33.36 42 -30.72 42 -28 42 C-28 41.34 -28 40.68 -28 40 C-27.2575 39.731875 -26.515 39.46375 -25.75 39.1875 C-23.09208476 38.03976387 -21.15359904 36.92285629 -19 35 C-18.67 34.01 -18.34 33.02 -18 32 C-17.34 32 -16.68 32 -16 32 C-16.33 34.97 -16.66 37.94 -17 41 C-16.62875 40.195625 -16.2575 39.39125 -15.875 38.5625 C-14.42676094 35.68661296 -12.79452449 32.96423585 -11.0625 30.25 C-10.33740234 29.11304688 -10.33740234 29.11304688 -9.59765625 27.953125 C-6.71310495 24.42677867 -3.36865497 23.72810916 1 23 C1 21.68 1 20.36 1 19 C-0.32 19.33 -1.64 19.66 -3 20 C-3 18.02 -3 16.04 -3 14 C-1.35 13.34 0.3 12.68 2 12 C1.484375 10.948125 0.96875 9.89625 0.4375 8.8125 C-0.99688183 5.51476233 -1.16452107 3.4935632 0 0 Z " fill="#20222D" transform="translate(669,328)"/>
<path d="M0 0 C0.66 0.33 1.32 0.66 2 1 C2 2.65 2 4.3 2 6 C2.78375 6.2475 3.5675 6.495 4.375 6.75 C7 8 7 8 8.25 9.6875 C10.10463454 15.40595648 10.31724199 21.65082843 10.75 27.625 C10.85248047 28.73101562 10.85248047 28.73101562 10.95703125 29.859375 C11.28757662 34.58871648 10.7650696 37.16596019 8 41 C8 41.66 8 42.32 8 43 C7.34 43 6.68 43 6 43 C6 42.34 6 41.68 6 41 C4.68 41 3.36 41 2 41 C2.474375 42.093125 2.94875 43.18625 3.4375 44.3125 C4.40187809 46.53476255 5.23166828 48.69500485 6 51 C5.505 51.99 5.505 51.99 5 53 C4.34 53 3.68 53 3 53 C3 53.99 3 54.98 3 56 C2.01 55.505 2.01 55.505 1 55 C1.20625 54.4225 1.4125 53.845 1.625 53.25 C2.09913849 50.40516904 1.33083642 49.51380214 0 47 C-0.38290462 45.00889599 -0.72604615 43.00899487 -1 41 C-1.66 41 -2.32 41 -3 41 C-2.91621094 41.68707031 -2.83242188 42.37414062 -2.74609375 43.08203125 C-2.59333984 44.43361328 -2.59333984 44.43361328 -2.4375 45.8125 C-2.33308594 46.70582031 -2.22867188 47.59914063 -2.12109375 48.51953125 C-2 51 -2 51 -3 54 C-13.56 54 -24.12 54 -35 54 C-36 50 -36 50 -35 48 C-34.01 48 -33.02 48 -32 48 C-32 47.34 -32 46.68 -32 46 C-31.34 46 -30.68 46 -30 46 C-29.773125 45.38125 -29.54625 44.7625 -29.3125 44.125 C-27.52150464 41.22529323 -26.30703231 40.79081207 -23 40 C-20.2666123 40.13692295 -17.70842848 40.54094432 -15 41 C-15.7763932 37.9254644 -15.7763932 37.9254644 -18 36 C-17.34 36 -16.68 36 -16 36 C-16 34.02 -16 32.04 -16 30 C-14.68 29.34 -13.36 28.68 -12 28 C-12.33 27.484375 -12.66 26.96875 -13 26.4375 C-14.32010877 23.21973488 -14.13242105 20.4429472 -14 17 C-13.34 16.67 -12.68 16.34 -12 16 C-11.34786708 13.97536745 -11.34786708 13.97536745 -11 12 C-10.34 12 -9.68 12 -9 12 C-9.33 11.01 -9.66 10.02 -10 9 C-8.35 9 -6.7 9 -5 9 C-5.33 8.01 -5.66 7.02 -6 6 C-4.68 5.67 -3.36 5.34 -2 5 C-1.505 6.485 -1.505 6.485 -1 8 C-1.020625 6.865625 -1.04125 5.73125 -1.0625 4.5625 C-1 1 -1 1 0 0 Z " fill="#0C0C0C" transform="translate(311,359)"/>
<path d="M0 0 C1.98 0 3.96 0 6 0 C6.33 0.99 6.66 1.98 7 3 C8.32338632 3.68620031 9.65949948 4.34786461 11 5 C13.24100871 6.53418689 15.01114732 8.10154971 17 10 C17 11.32 17 12.64 17 14 C17.66 14.33 18.32 14.66 19 15 C16.36 15.33 13.72 15.66 11 16 C11 16.66 11 17.32 11 18 C13.64 18 16.28 18 19 18 C19 26.91 19 35.82 19 45 C16.69 45 14.38 45 12 45 C12.33 44.01 12.66 43.02 13 42 C11.515 41.505 11.515 41.505 10 41 C10 40.34 10 39.68 10 39 C6.9254644 39.7763932 6.9254644 39.7763932 5 42 C4.505 41.505 4.505 41.505 4 41 C3.34 41.99 2.68 42.98 2 44 C0.02 43.67 -1.96 43.34 -4 43 C-4.66 43.99 -5.32 44.98 -6 46 C-7.875 46.44140625 -7.875 46.44140625 -10 46.5625 C-13.40578304 46.71839542 -13.40578304 46.71839542 -16 49 C-16.66 47.68 -17.32 46.36 -18 45 C-16.625 43.5 -16.625 43.5 -15 42 C-14.34 42 -13.68 42 -13 42 C-12.67 41.34 -12.34 40.68 -12 40 C-13.485 40.495 -13.485 40.495 -15 41 C-15.495 39.515 -15.495 39.515 -16 38 C-15.109375 36.3515625 -15.109375 36.3515625 -13.75 34.625 C-12.11494766 32.49447725 -10.74948599 30.54907478 -9.4375 28.1875 C-7.23697349 24.83887271 -5.06451538 24.24193531 -1.25 23.375 C-0.5075 23.25125 0.235 23.1275 1 23 C1 21.68 1 20.36 1 19 C-0.32 19.33 -1.64 19.66 -3 20 C-3 18.02 -3 16.04 -3 14 C-1.35 13.34 0.3 12.68 2 12 C1.484375 10.948125 0.96875 9.89625 0.4375 8.8125 C-0.99688183 5.51476233 -1.16452107 3.4935632 0 0 Z " fill="#20222C" transform="translate(669,328)"/>
<path d="M0 0 C0.99 0 1.98 0 3 0 C3 0.66 3 1.32 3 2 C3.66 2.33 4.32 2.66 5 3 C4.34 3 3.68 3 3 3 C3 3.66 3 4.32 3 5 C3.928125 4.9175 4.85625 4.835 5.8125 4.75 C9 5 9 5 10.875 7 C11.431875 7.99 11.431875 7.99 12 9 C12 8.34 12 7.68 12 7 C11.34 6.34 10.68 5.68 10 5 C11.65 5 13.3 5 15 5 C15.97910979 7.61095945 16.23566343 9.37237822 15.24609375 12.0078125 C13.67092808 15.15814385 11.95576614 18.06635079 10 21 C10.66 21.99 11.32 22.98 12 24 C12.31254378 26.72283905 12.13333428 29.24442486 12 32 C11.67 32.33 11.34 32.66 11 33 C11.36907901 34.95168983 11.82145275 36.88787404 12.3125 38.8125 C12.57675781 39.87082031 12.84101563 40.92914063 13.11328125 42.01953125 C14.22379018 45.75221106 15.24192259 48.24192259 18 51 C14.52692308 57.82211538 14.52692308 57.82211538 11.859375 58.72265625 C11.24578125 58.81417969 10.6321875 58.90570313 10 59 C9.95101563 58.37351562 9.90203125 57.74703125 9.8515625 57.1015625 C9.77679688 56.28429687 9.70203125 55.46703125 9.625 54.625 C9.55539062 53.81289063 9.48578125 53.00078125 9.4140625 52.1640625 C9.17107412 49.79665809 9.17107412 49.79665809 7 48 C6.07687842 45.07678165 5.70731754 43.64024288 7 40.8125 C7.33 40.214375 7.66 39.61625 8 39 C7.67 38.34 7.34 37.68 7 37 C6.01 37.66 5.02 38.32 4 39 C1.3125 39.125 1.3125 39.125 -1 39 C0.47692308 32.35384615 0.47692308 32.35384615 3.125 30.5625 C3.74375 30.376875 4.3625 30.19125 5 30 C3.02 29.34 1.04 28.68 -1 28 C-1.4125 28.474375 -1.825 28.94875 -2.25 29.4375 C-4.182185 31.16266518 -5.48192275 31.56584875 -8 32 C-8.33 31.34 -8.66 30.68 -9 30 C-8.34 29.67 -7.68 29.34 -7 29 C-7.33 27.68 -7.66 26.36 -8 25 C-9.68630119 28.51033129 -9.68630119 28.51033129 -9.625 32.3125 C-9.41875 32.869375 -9.2125 33.42625 -9 34 C-9.66 34 -10.32 34 -11 34 C-11 35.32 -11 36.64 -11 38 C-12.32 37.67 -13.64 37.34 -15 37 C-15.66 38.32 -16.32 39.64 -17 41 C-18.25664978 38.09399739 -19 36.20395416 -19 33 C-18.34 33 -17.68 33 -17 33 C-17 30.03 -17 27.06 -17 24 C-15.35 24.33 -13.7 24.66 -12 25 C-12 23.68 -12 22.36 -12 21 C-11.34 20.34 -10.68 19.68 -10 19 C-11.79819816 15.5739739 -11.79819816 15.5739739 -16 15 C-15.34 10.71 -14.68 6.42 -14 2 C-14.66 1.67 -15.32 1.34 -16 1 C-12.27726251 0.92402577 -8.87033255 1.02125696 -5.1875 1.625 C-3.6096875 1.810625 -3.6096875 1.810625 -2 2 C-1.34 1.34 -0.68 0.68 0 0 Z " fill="#050505" transform="translate(314,325)"/>
<path d="M0 0 C0 11.88 0 23.76 0 36 C-4.62 36 -9.24 36 -14 36 C-13.01 35.34 -12.02 34.68 -11 34 C-15.9025144 32.85037937 -20.81455313 32.67582705 -25.82421875 32.48242188 C-27.55457642 32.39162093 -29.27925904 32.20355106 -31 32 C-31.33 31.34 -31.66 30.68 -32 30 C-31.34 30 -30.68 30 -30 30 C-30 28.02 -30 26.04 -30 24 C-31.134375 23.5875 -32.26875 23.175 -33.4375 22.75 C-37 21 -37 21 -37.72265625 18.890625 C-37.81417969 18.26671875 -37.90570312 17.6428125 -38 17 C-37.33613281 16.98582031 -36.67226563 16.97164063 -35.98828125 16.95703125 C-31.56538864 16.71813048 -28.74958395 16.52630363 -25.0625 13.9375 C-22.94544998 10.92230755 -21.94166793 8.40958517 -21.06640625 4.8671875 C-16.87831891 -2.4658006 -6.60558314 0 0 0 Z " fill="#FDFDFD" transform="translate(688,377)"/>
<path d="M0 0 C0.33 0 0.66 0 1 0 C1.33 9.57 1.66 19.14 2 29 C5.3 27.68 8.6 26.36 12 25 C16.125 24.25 16.125 24.25 19 24 C18.07179922 27.21109731 17.13077758 30.41830222 16.1875 33.625 C15.92646484 34.52863281 15.66542969 35.43226563 15.39648438 36.36328125 C13.9677958 41.19612903 12.30442458 45.50187394 10 50 C10 50.99 10 51.98 10 53 C10.66 53 11.32 53 12 53 C12 53.66 12 54.32 12 55 C12.9590625 55.1546875 12.9590625 55.1546875 13.9375 55.3125 C14.618125 55.539375 15.29875 55.76625 16 56 C17.15955441 59.47866322 17 62.35001677 17 66 C17.33 66.99 17.66 67.98 18 69 C17.625 72.4375 17.625 72.4375 16 76 C13.75771495 77.37921684 11.56921501 78.28766799 9.09375 79.17578125 C6.82654043 79.90749255 6.82654043 79.90749255 5 82 C1.375 81.625 1.375 81.625 -2 81 C-2 80.34 -2 79.68 -2 79 C-1.34 79 -0.68 79 0 79 C-0.01160156 78.03578125 -0.02320313 77.0715625 -0.03515625 76.078125 C-0.04417969 74.81484375 -0.05320312 73.5515625 -0.0625 72.25 C-0.07410156 70.99703125 -0.08570313 69.7440625 -0.09765625 68.453125 C-0.02021027 65.71463499 0.17219185 63.58119707 1 61 C1.99 61 2.98 61 4 61 C4.33 60.34 4.66 59.68 5 59 C6.32 59 7.64 59 9 59 C9 58.34 9 57.68 9 57 C7.35 57 5.7 57 4 57 C4 57.66 4 58.32 4 59 C3.01 58.67 2.02 58.34 1 58 C1 54.04 1 50.08 1 46 C1.66 46 2.32 46 3 46 C2.34 45.67 1.68 45.34 1 45 C-0.58329645 35.06474439 -0.12513038 24.66476813 -0.0625 14.625 C-0.05746589 13.1953141 -0.05290643 11.76562645 -0.04882812 10.3359375 C-0.03799465 6.89058755 -0.02083984 3.44530573 0 0 Z " fill="#F7F7F7" transform="translate(275,313)"/>
<path d="M0 0 C-3.96662569 1.32220856 -6.06596141 -0.08004434 -9.6875 -1.6875 C-33.4422863 -11.71548217 -61.0364365 -13.20952961 -86 -7 C-86.77859375 -6.86851562 -87.5571875 -6.73703125 -88.359375 -6.6015625 C-115.2553224 -2.05149621 -141.76756202 18.20145354 -157.48583984 39.87475586 C-163.22154266 48.13356309 -167.82288981 56.86749729 -172 66 C-172.5053125 67.10214844 -173.010625 68.20429688 -173.53125 69.33984375 C-175.31543215 73.78606364 -176.62336138 78.41120459 -178 83 C-159.52 83 -141.04 83 -122 83 C-122 94.88 -122 106.76 -122 119 C-122.33 119 -122.66 119 -123 119 C-123 107.45 -123 95.9 -123 84 C-141.48 84 -159.96 84 -179 84 C-180.03613978 78.8193011 -179.47630179 76.41612984 -177.625 71.75 C-177.221604 70.71033081 -177.221604 70.71033081 -176.81005859 69.6496582 C-170.01702979 52.70129843 -160.53527642 38.2713721 -148 25 C-147.32582031 24.26136719 -146.65164062 23.52273437 -145.95703125 22.76171875 C-135.13369046 11.3291843 -122.24175398 3.43868318 -108 -3 C-107.14277344 -3.39703125 -106.28554687 -3.7940625 -105.40234375 -4.203125 C-100.04880374 -6.5171766 -94.47638172 -8.09675299 -88.875 -9.6875 C-88.12234863 -9.90237061 -87.36969727 -10.11724121 -86.59423828 -10.33862305 C-58.35239236 -18.08175576 -25.79669149 -13.25226377 0 0 Z " fill="#D1D1D1" transform="translate(275,223)"/>
<path d="M0 0 C0.33 0 0.66 0 1 0 C1.12375 1.0725 1.2475 2.145 1.375 3.25 C1.75131263 6.8053218 1.75131263 6.8053218 3.0625 8.90625 C4.27213615 11.60777072 4.00027007 13.33123279 3.625 16.25 C3.22253069 19.74118725 2.93656194 23.11053153 3 26.625 C3 27.73875 3 28.8525 3 30 C2 31 2 31 -1.05102539 31.11352539 C-2.39991271 31.11336634 -3.74880614 31.10767612 -5.09765625 31.09765625 C-6.16094398 31.09553383 -6.16094398 31.09553383 -7.24571228 31.09336853 C-9.51801712 31.08775443 -11.79022475 31.07519963 -14.0625 31.0625 C-15.59960796 31.05748681 -17.13671745 31.05292359 -18.67382812 31.04882812 C-22.44925642 31.03778042 -26.22461171 31.02050641 -30 31 C-31.125 27.25 -31.125 27.25 -30 25 C-29.01 25 -28.02 25 -27 25 C-27 24.34 -27 23.68 -27 23 C-26.34 23 -25.68 23 -25 23 C-24.773125 22.38125 -24.54625 21.7625 -24.3125 21.125 C-22.52150464 18.22529323 -21.30703231 17.79081207 -18 17 C-15.2666123 17.13692295 -12.70842848 17.54094432 -10 18 C-10 17.34 -10 16.68 -10 16 C-9.34 16 -8.68 16 -8 16 C-8 15.34 -8 14.68 -8 14 C-7.34 14 -6.68 14 -6 14 C-5.32041397 11.60280568 -5.32041397 11.60280568 -5 9 C-5.66 8.34 -6.32 7.68 -7 7 C-6.1028125 6.938125 -6.1028125 6.938125 -5.1875 6.875 C-2.64899168 6.12260099 -2.64899168 6.12260099 -1.25 2.9375 C-0.8375 1.968125 -0.425 0.99875 0 0 Z " fill="#F4F4F4" transform="translate(306,382)"/>
<path d="M0 0 C0.99 0.495 0.99 0.495 2 1 C-22.8858979 29.25210632 -51.45747105 46.5080458 -89.5 49.8125 C-100.02322071 50.30975109 -111.69769153 50.49388101 -122 48 C-123.58748047 47.62294922 -123.58748047 47.62294922 -125.20703125 47.23828125 C-142.19190926 42.87705039 -158.19520694 37.15458923 -172 26 C-167.87445559 26 -165.2479401 28.06332647 -161.8125 30.125 C-153.82664051 34.75869167 -145.75603103 38.12330756 -137 41 C-135.83855469 41.39058594 -134.67710937 41.78117187 -133.48046875 42.18359375 C-101.55433579 52.14454723 -67.45551786 46.8127485 -38.125 31.6875 C-23.15963233 23.57576748 -11.74018317 12.15289918 0 0 Z " fill="#E1E1E1" transform="translate(318,418)"/>
<path d="M0 0 C3.42430894 1.23655601 6.40112619 2.40112619 9 5 C9.25 7.6875 9.25 7.6875 9 10 C9.9590625 10.1546875 9.9590625 10.1546875 10.9375 10.3125 C11.618125 10.539375 12.29875 10.76625 13 11 C13.33 11.99 13.66 12.98 14 14 C14.99 13.67 15.98 13.34 17 13 C19.5625 13.6875 19.5625 13.6875 22 15 C22.28875 15.639375 22.5775 16.27875 22.875 16.9375 C24.67668526 20.24058964 27.54312417 20.71967562 31 22 C30.67 23.98 30.34 25.96 30 28 C26.05084174 29.31638609 23.68578735 28.79640097 19.9609375 27.0234375 C15.35210912 24.61803305 10.78160818 22.17325417 6.4375 19.3125 C3.0613604 17.49457868 -0.25844485 16.82441046 -4 16 C-4.33 16.66 -4.66 17.32 -5 18 C-5.25 15.1875 -5.25 15.1875 -5 12 C-3.125 10.125 -3.125 10.125 -1 9 C-0.34 9 0.32 9 1 9 C1.33 7.02 1.66 5.04 2 3 C-0.475 4.485 -0.475 4.485 -3 6 C-1.125 1.125 -1.125 1.125 0 0 Z " fill="#292C36" transform="translate(628,379)"/>
<path d="M0 0 C0.66 0.33 1.32 0.66 2 1 C0.68 2.32 -0.64 3.64 -2 5 C-1.01 5.33 -0.02 5.66 1 6 C-9.34903149 13.73841547 -19.78967401 21.33748197 -30.375 28.75 C-31.35476807 29.4409375 -32.33453613 30.131875 -33.34399414 30.84375 C-34.26946045 31.48828125 -35.19492676 32.1328125 -36.1484375 32.796875 C-36.96489746 33.36760742 -37.78135742 33.93833984 -38.62255859 34.52636719 C-41.01575846 36.00976772 -43.35890151 37.03842647 -46 38 C-45.67 36.68 -45.34 35.36 -45 34 C-45.78375 34.515625 -46.5675 35.03125 -47.375 35.5625 C-48.24125 36.036875 -49.1075 36.51125 -50 37 C-50.66 36.67 -51.32 36.34 -52 36 C-48.77383006 33.55851351 -45.54354851 31.12252549 -42.3125 28.6875 C-41.40048828 27.99720703 -40.48847656 27.30691406 -39.54882812 26.59570312 C-38.66259766 25.92861328 -37.77636719 25.26152344 -36.86328125 24.57421875 C-36.05157471 23.96151123 -35.23986816 23.34880371 -34.40356445 22.7175293 C-27.80170576 18 -27.80170576 18 -23 18 C-22.67 17.01 -22.34 16.02 -22 15 C-19.8828125 13.45703125 -19.8828125 13.45703125 -17.125 11.8125 C-11.18503674 8.16911493 -5.58638827 4.16007637 0 0 Z " fill="#646464" transform="translate(340,266)"/>
<path d="M0 0 C29.37 0 58.74 0 89 0 C89 8.25 89 16.5 89 25 C88.67 25 88.34 25 88 25 C88 20.71 88 16.42 88 12 C87.01 11.67 86.02 11.34 85 11 C85.33 9.68 85.66 8.36 86 7 C86.66 7 87.32 7 88 7 C88 5.02 88 3.04 88 1 C59.29 1 30.58 1 1 1 C1 35.65 1 70.3 1 106 C9.415 105.505 9.415 105.505 18 105 C17.34 104.34 16.68 103.68 16 103 C18.64 103 21.28 103 24 103 C24 103.66 24 104.32 24 105 C25.98 105 27.96 105 30 105 C30 105.33 30 105.66 30 106 C20.09500687 107.41499902 10.00555401 107 0 107 C0 71.69 0 36.38 0 0 Z " fill="#9A9A9A" transform="translate(599,306)"/>
<path d="M0 0 C2.97 0 5.94 0 9 0 C9 8.25 9 16.5 9 25 C7.68 24.67 6.36 24.34 5 24 C5.66 23.34 6.32 22.68 7 22 C6.67958603 19.39719432 6.67958603 19.39719432 6 17 C0.6913151 17.58174845 0.6913151 17.58174845 -4 20 C-7.1875 20.125 -7.1875 20.125 -10 20 C-9.4445349 16.10488671 -8.35322214 13.68124737 -6.0625 10.5 C-3.85328494 7.4168694 -2.35247655 4.54191167 -1 1 C-0.67 0.67 -0.34 0.34 0 0 Z " fill="#FAFAFA" transform="translate(679,347)"/>
<path d="M0 0 C1.98 0.66 3.96 1.32 6 2 C6 2.66 6 3.32 6 4 C6.62648438 3.90460938 7.25296875 3.80921875 7.8984375 3.7109375 C8.71570313 3.60007812 9.53296875 3.48921875 10.375 3.375 C11.59316406 3.20097656 11.59316406 3.20097656 12.8359375 3.0234375 C13.55007813 3.01570313 14.26421875 3.00796875 15 3 C17 5 17 5 17.07421875 7.2421875 C16.65739846 10.07993371 16.19745836 12.38505559 15 15 C12.74933646 16.60216726 10.71442953 17.43038002 8.09375 18.28125 C5.81502016 18.89217308 5.81502016 18.89217308 4 21 C0.375 20.625 0.375 20.625 -3 20 C-3 19.34 -3 18.68 -3 18 C-2.34 18 -1.68 18 -1 18 C-1.01160156 17.03578125 -1.02320313 16.0715625 -1.03515625 15.078125 C-1.04417969 13.81484375 -1.05320312 12.5515625 -1.0625 11.25 C-1.07410156 9.99703125 -1.08570313 8.7440625 -1.09765625 7.453125 C-1.02021027 4.71463499 -0.82780815 2.58119707 0 0 Z " fill="#8D8D8D" transform="translate(276,374)"/>
<path d="M0 0 C6.86848153 -0.02539701 13.73695091 -0.04288668 20.60546875 -0.05493164 C22.94108533 -0.05995412 25.27669878 -0.06677332 27.61230469 -0.07543945 C30.97331517 -0.0875963 34.33428401 -0.09324924 37.6953125 -0.09765625 C38.73615997 -0.10281754 39.77700745 -0.10797882 40.84939575 -0.11329651 C45.68118799 -0.11366869 50.25080774 -0.02273961 55 1 C54.67 1.66 54.34 2.32 54 3 C50.99633486 4.00122171 49.02260407 4.12112011 45.88598633 4.11352539 C44.84513382 4.11344986 43.80428131 4.11337433 42.73188782 4.11329651 C41.60993515 4.10813522 40.48798248 4.10297394 39.33203125 4.09765625 C37.60710701 4.09553383 37.60710701 4.09553383 35.84733582 4.09336853 C32.16903092 4.08776429 28.49078655 4.07521104 24.8125 4.0625 C22.32096442 4.05748555 19.82942789 4.05292255 17.33789062 4.04882812 C11.22523971 4.03779347 5.11262418 4.02105118 -1 4 C-0.67 2.68 -0.34 1.36 0 0 Z " fill="#5A5C63" transform="translate(623,409)"/>
<path d="M0 0 C2.9375 0.5 2.9375 0.5 4.75 1.5625 C6.49479603 4.40927247 6.62792148 7.21846765 6.9375 10.5 C6.6075 9.84 6.2775 9.18 5.9375 8.5 C5.2775 8.5 4.6175 8.5 3.9375 8.5 C3.8446875 9.36625 3.8446875 9.36625 3.75 10.25 C2.58642867 13.47219753 0.76823821 14.65672861 -2.0625 16.5 C-3.3825 16.5 -4.7025 16.5 -6.0625 16.5 C-6.0625 17.16 -6.0625 17.82 -6.0625 18.5 C-10.0225 18.995 -10.0225 18.995 -14.0625 19.5 C-12.7425 21.15 -11.4225 22.8 -10.0625 24.5 C-11.0525 24.5 -12.0425 24.5 -13.0625 24.5 C-13.0625 23.84 -13.0625 23.18 -13.0625 22.5 C-14.3825 22.83 -15.7025 23.16 -17.0625 23.5 C-16.6875 20.5625 -16.6875 20.5625 -16.0625 17.5 C-13.60175394 16.26962697 -11.7827437 16.5 -9.0625 16.5 C-7.45073236 14.88823236 -7.86511291 12.97332361 -7.75 10.75 C-7.42220113 7.28327859 -7.06189882 5.49888669 -5.375 2.375 C-3.0625 0.5 -3.0625 0.5 0 0 Z " fill="#2C2F39" transform="translate(647.0625,351.5)"/>
<path d="M0 0 C0 3.57957834 -0.81792457 4.46310605 -2.875 7.3125 C-7.48630253 14.0771938 -8.83379633 19.85339979 -8 28 C-6.4100636 32.47169611 -3.35331249 34.52818975 0.57421875 36.92407227 C5.08841497 38.92629275 9.63790315 38.69243867 14.5 38.5625 C15.56879395 38.54372803 16.63758789 38.52495605 17.73876953 38.50561523 C32.88342529 38.04083806 46.18452771 33.07254005 60.30615234 27.91040039 C61.38719238 27.52102295 62.46823242 27.13164551 63.58203125 26.73046875 C64.55374268 26.37364014 65.5254541 26.01681152 66.52661133 25.64916992 C69 25 69 25 72 26 C55.00858978 33.2253193 37.57532736 39.91677357 19 41 C17.24042969 41.10441406 17.24042969 41.10441406 15.4453125 41.2109375 C7.39645069 41.45258924 1.03579011 40.45656789 -5.875 36.25 C-9.42711227 32.48893995 -10.80772629 28.73046338 -11.375 23.625 C-10.43228403 14.51207899 -6.50135981 6.50135981 0 0 Z " fill="#BBBBBB" transform="translate(54,408)"/>
<path d="M0 0 C0.66 0.33 1.32 0.66 2 1 C2 2.65 2 4.3 2 6 C2.78375 6.2475 3.5675 6.495 4.375 6.75 C7 8 7 8 8.375 9.8125 C9.1508614 12.5280149 8.74778098 14.30798849 8 17 C7.34 16.01 6.68 15.02 6 14 C5.566875 14.495 5.13375 14.99 4.6875 15.5 C3 17 3 17 0 17 C0 16.34 0 15.68 0 15 C-0.66 15 -1.32 15 -2 15 C-2.66 16.32 -3.32 17.64 -4 19 C-4 18.34 -4 17.68 -4 17 C-5.65 17.99 -7.3 18.98 -9 20 C-10.5625 17.6875 -10.5625 17.6875 -12 15 C-11.67 14.01 -11.34 13.02 -11 12 C-10.34 12 -9.68 12 -9 12 C-9.33 11.01 -9.66 10.02 -10 9 C-8.35 9 -6.7 9 -5 9 C-5.33 8.01 -5.66 7.02 -6 6 C-4.68 5.67 -3.36 5.34 -2 5 C-1.67 5.99 -1.34 6.98 -1 8 C-1.020625 6.865625 -1.04125 5.73125 -1.0625 4.5625 C-1 1 -1 1 0 0 Z " fill="#5F5F5F" transform="translate(311,359)"/>
<path d="M0 0 C0.33 1.32 0.66 2.64 1 4 C1.66 4 2.32 4 3 4 C4.6498007 7.29960141 4.38258361 10.99127884 4.5625 14.625 C4.60568359 15.42679687 4.64886719 16.22859375 4.69335938 17.0546875 C4.79951457 19.0362511 4.90026855 21.01810271 5 23 C0.375 25.125 0.375 25.125 -3 24 C-2.67 22.02 -2.34 20.04 -2 18 C-2.66 17.67 -3.32 17.34 -4 17 C-4 16.34 -4 15.68 -4 15 C-4.66 14.67 -5.32 14.34 -6 14 C-5.814375 13.05125 -5.62875 12.1025 -5.4375 11.125 C-4.71313368 8.10131207 -4.71313368 8.10131207 -6 6 C-6.99 6 -7.98 6 -9 6 C-8.67 4.68 -8.34 3.36 -8 2 C-7.34 2 -6.68 2 -6 2 C-6 2.66 -6 3.32 -6 4 C-4.05925139 3.72382467 -4.05925139 3.72382467 -2 3 C-1.34 2.01 -0.68 1.02 0 0 Z " fill="#575757" transform="translate(317,372)"/>
<path d="M0 0 C3.42430894 1.23655601 6.40112619 2.40112619 9 5 C9.25 7.6875 9.25 7.6875 9 10 C10.32 10.33 11.64 10.66 13 11 C13 11.66 13 12.32 13 13 C12.34 13 11.68 13 11 13 C10.34 15.31 9.68 17.62 9 20 C4.71 18.68 0.42 17.36 -4 16 C-4.33 16.66 -4.66 17.32 -5 18 C-5.25 15.1875 -5.25 15.1875 -5 12 C-3.125 10.125 -3.125 10.125 -1 9 C-0.34 9 0.32 9 1 9 C1.33 7.02 1.66 5.04 2 3 C-0.475 4.485 -0.475 4.485 -3 6 C-1.125 1.125 -1.125 1.125 0 0 Z " fill="#262933" transform="translate(628,379)"/>
<path d="M0 0 C0.66 0.33 1.32 0.66 2 1 C0.02 3.31 -1.96 5.62 -4 8 C-1.525 8.99 -1.525 8.99 1 10 C-0.32 10.99 -1.64 11.98 -3 13 C-0.36 15.97 2.28 18.94 5 22 C2 22 2 22 -0.5625 19.625 C-1.7690625 18.325625 -1.7690625 18.325625 -3 17 C-3.66 16.34 -4.32 15.68 -5 15 C-5 16.98 -5 18.96 -5 21 C-5.99 21.33 -6.98 21.66 -8 22 C-8.33 20.02 -8.66 18.04 -9 16 C-9.66 16.99 -10.32 17.98 -11 19 C-11.66 19 -12.32 19 -13 19 C-12.34 17.02 -11.68 15.04 -11 13 C-12.32 12.67 -13.64 12.34 -15 12 C-15 11.34 -15 10.68 -15 10 C-14.01 9.67 -13.02 9.34 -12 9 C-12.825 8.21625 -13.65 7.4325 -14.5 6.625 C-17 4 -17 4 -17 2 C-14.50638429 3.20381448 -12.31856917 4.45428722 -10 6 C-10 4.68 -10 3.36 -10 2 C-9.34 2 -8.68 2 -8 2 C-7.01 3.485 -7.01 3.485 -6 5 C-4.02 3.35 -2.04 1.7 0 0 Z " fill="#E6E6E6" transform="translate(304,228)"/>
<path d="M0 0 C0.33 0 0.66 0 1 0 C1.33 9.57 1.66 19.14 2 29 C5.3 27.68 8.6 26.36 12 25 C16.125 24.25 16.125 24.25 19 24 C18.01 27.63 17.02 31.26 16 35 C15.67 34.34 15.34 33.68 15 33 C8.07 35.475 8.07 35.475 1 38 C0 37 0 37 -0.11352539 33.48999023 C-0.11336626 31.92951578 -0.10767142 30.36903607 -0.09765625 28.80859375 C-0.0962413 27.98875504 -0.09482635 27.16891632 -0.09336853 26.32423401 C-0.08775289 23.69528618 -0.07519779 21.06642227 -0.0625 18.4375 C-0.05748701 16.65950643 -0.05292376 14.88151154 -0.04882812 13.10351562 C-0.03777839 8.73564455 -0.02050331 4.36783652 0 0 Z " fill="#BEBEBE" transform="translate(275,313)"/>
<path d="M0 0 C2.36810318 0.94724127 3.75207953 1.65291134 5.25 3.75 C6.20357504 6.61072512 6.19545085 9.00308693 6 12 C5.67 12.66 5.34 13.32 5 14 C5.66 14.33 6.32 14.66 7 15 C5.35 15.66 3.7 16.32 2 17 C1.67 16.34 1.34 15.68 1 15 C1.66 14.67 2.32 14.34 3 14 C2.67 12.68 2.34 11.36 2 10 C0.31369881 13.51033129 0.31369881 13.51033129 0.375 17.3125 C0.58125 17.869375 0.7875 18.42625 1 19 C0.34 19 -0.32 19 -1 19 C-1 20.32 -1 21.64 -1 23 C-2.32 22.67 -3.64 22.34 -5 22 C-5.66 23.32 -6.32 24.64 -7 26 C-8.25664978 23.09399739 -9 21.20395416 -9 18 C-8.34 18 -7.68 18 -7 18 C-7 15.03 -7 12.06 -7 9 C-6.2575 9.061875 -5.515 9.12375 -4.75 9.1875 C-1.54616994 8.96905704 -0.35968744 8.09749995 2 6 C1.34 4.02 0.68 2.04 0 0 Z " fill="#515151" transform="translate(304,340)"/>
<path d="M0 0 C0.66 0.33 1.32 0.66 2 1 C0.68 2.32 -0.64 3.64 -2 5 C-1.01 5.33 -0.02 5.66 1 6 C-9.34903149 13.73841547 -19.78967401 21.33748197 -30.375 28.75 C-31.35476807 29.4409375 -32.33453613 30.131875 -33.34399414 30.84375 C-34.26946045 31.48828125 -35.19492676 32.1328125 -36.1484375 32.796875 C-36.96489746 33.36760742 -37.78135742 33.93833984 -38.62255859 34.52636719 C-41.01575846 36.00976772 -43.35890151 37.03842647 -46 38 C-41.70877697 33.29548295 -36.78425402 29.95359245 -31.5 26.4375 C-29.82167548 25.31304827 -28.14455675 24.18679436 -26.46875 23.05859375 C-25.29892578 22.27137939 -25.29892578 22.27137939 -24.10546875 21.46826172 C-22.36053857 20.25142381 -20.68494923 18.93584708 -19.03125 17.59765625 C-17 16 -17 16 -15 16 C-15.83333333 13.83333333 -15.83333333 13.83333333 -18 13 C-12.06 8.71 -6.12 4.42 0 0 Z " fill="#989898" transform="translate(340,266)"/>
<path d="M0 0 C0.66 0.66 1.32 1.32 2 2 C1.44444444 6.55555556 1.44444444 6.55555556 0 8 C0.99 8.66 1.98 9.32 3 10 C0.69 10 -1.62 10 -4 10 C-3.67 9.01 -3.34 8.02 -3 7 C-3.99 6.67 -4.98 6.34 -6 6 C-6 5.34 -6 4.68 -6 4 C-9.0745356 4.7763932 -9.0745356 4.7763932 -11 7 C-11.33 6.67 -11.66 6.34 -12 6 C-12.99 7.485 -12.99 7.485 -14 9 C-16.97 8.505 -16.97 8.505 -20 8 C-20.99 9.485 -20.99 9.485 -22 11 C-25.125 11.1875 -25.125 11.1875 -28 11 C-27.28515625 9.06640625 -27.28515625 9.06640625 -26 7 C-23.87109375 6.27734375 -23.87109375 6.27734375 -21.4375 5.9375 C-19.04681229 5.65741114 -19.04681229 5.65741114 -17 5 C-16.67 4.01 -16.34 3.02 -16 2 C-16 2.66 -16 3.32 -16 4 C-11.30784025 2.7813575 -11.30784025 2.7813575 -6.875 0.875 C-4.44034064 -0.26117437 -2.65500135 -0.27947383 0 0 Z " fill="#31343D" transform="translate(685,363)"/>
<path d="M0 0 C1.15892509 0.00424484 1.15892509 0.00424484 2.34126282 0.00857544 C4.80709368 0.01976372 7.27256031 0.04486547 9.73828125 0.0703125 C11.41080204 0.08034407 13.08332853 0.08946961 14.75585938 0.09765625 C18.85430684 0.11969858 22.95248231 0.15421887 27.05078125 0.1953125 C26.72078125 1.1853125 26.39078125 2.1753125 26.05078125 3.1953125 C21.57162854 3.2245939 17.09250083 3.24220546 12.61328125 3.2578125 C11.35322266 3.26619141 10.09316406 3.27457031 8.79492188 3.28320312 C2.12186095 3.30062626 -4.33690043 3.10909316 -10.94921875 2.1953125 C-7.20917558 -0.29804961 -4.32360266 -0.05949978 0 0 Z " fill="#32343E" transform="translate(643.94921875,409.8046875)"/>
<path d="M0 0 C0.33 0.66 0.66 1.32 1 2 C1.99 2 2.98 2 4 2 C4.268125 2.969375 4.53625 3.93875 4.8125 4.9375 C5.204375 5.948125 5.59625 6.95875 6 8 C6.99 8.33 7.98 8.66 9 9 C8.34 10.98 7.68 12.96 7 15 C4.69 14.67 2.38 14.34 0 14 C-1.58177926 9.84782943 -2.40478458 6.45263035 -2 2 C-1.34 1.34 -0.68 0.68 0 0 Z " fill="#272A34" transform="translate(611,377)"/>
<path d="M0 0 C1 3 1 3 -0.37109375 6.22265625 C-1.04522758 7.51039013 -1.73509718 8.78996503 -2.4375 10.0625 C-2.8102002 10.74078857 -3.18290039 11.41907715 -3.56689453 12.11791992 C-12.05438974 27.20142166 -25.54044934 40.2280593 -39 51 C-39.66 50.67 -40.32 50.34 -41 50 C-40.34366577 49.38910522 -40.34366577 49.38910522 -39.67407227 48.76586914 C-35.42068301 44.80315703 -31.1810126 40.82630721 -26.95263672 36.83691406 C-25.40446349 35.38049304 -23.8465077 33.93447186 -22.28515625 32.4921875 C-12.57739276 23.25840161 -5.48031399 12.16362374 0 0 Z " fill="#CCCCCC" transform="translate(398,234)"/>
<path d="M0 0 C2.12560437 0.30836232 4.25047065 0.62181614 6.375 0.9375 C8.15003906 1.19853516 8.15003906 1.19853516 9.9609375 1.46484375 C13 2 13 2 15 3 C14.67 3.99 14.34 4.98 14 6 C11.67328146 6.68939809 9.33932406 7.35466922 7 8 C6.443125 8.556875 5.88625 9.11375 5.3125 9.6875 C4.6628125 10.3371875 4.6628125 10.3371875 4 11 C2.68 10.67 1.36 10.34 0 10 C0 6.7 0 3.4 0 0 Z " fill="#FAFAFA" transform="translate(276,384)"/>
<path d="M0 0 C0.66 0.33 1.32 0.66 2 1 C-7.74208897 12.05985946 -17.30118386 22.35856122 -30 30 C-30.66 30 -31.32 30 -32 30 C-32 29.34 -32 28.68 -32 28 C-30.06723996 26.6079156 -28.11788304 25.3011563 -26.125 24 C-16.24768008 17.30488017 -8.21715423 8.58186234 0 0 Z " fill="#E5E5E5" transform="translate(318,418)"/>
<path d="M0 0 C4.55555556 0.55555556 4.55555556 0.55555556 6 2 C6.4375 4.75 6.4375 4.75 6 8 C4.18547719 10.33464661 2.57486537 11.36595083 0 13 C-2.203125 12.62890625 -2.203125 12.62890625 -4 12 C-3.71788123 10.3733152 -3.42397625 8.74867104 -3.125 7.125 C-2.96257813 6.22007812 -2.80015625 5.31515625 -2.6328125 4.3828125 C-2 2 -2 2 0 0 Z " fill="#F3F4F4" transform="translate(645,355)"/>
<path d="M0 0 C0.33 4.29 0.66 8.58 1 13 C-4 15 -4 15 -7 14 C-6.67 12.02 -6.34 10.04 -6 8 C-6.66 7.67 -7.32 7.34 -8 7 C-7.67 6.34 -7.34 5.68 -7 5 C-6.34 5.33 -5.68 5.66 -5 6 C-5.7763932 2.9254644 -5.7763932 2.9254644 -8 1 C-1.125 0 -1.125 0 0 0 Z " fill="#232323" transform="translate(321,382)"/>
<path d="M0 0 C1.32 0.33 2.64 0.66 4 1 C4 1.66 4 2.32 4 3 C4.33 3.33 4.66 3.66 5 4 C5.68268138 5.32520503 6.3507041 6.65812182 7 8 C6.01 8.33 5.02 8.66 4 9 C5.32 10.32 6.64 11.64 8 13 C7.375 14.9375 7.375 14.9375 6 17 C4.02 17.33 2.04 17.66 0 18 C0 12.06 0 6.12 0 0 Z " fill="#3C3E48" transform="translate(628,344)"/>
<path d="M0 0 C4.08769878 1.48643592 7.59799862 3.49772889 11.3125 5.75 C20.93302494 11.4164413 31.26306397 15.03522025 42 18 C41.34 18.66 40.68 19.32 40 20 C26.32566976 18.68229181 10.11692675 9.89941694 0 1 C0 0.67 0 0.34 0 0 Z " fill="#D4D4D4" transform="translate(146,443)"/>
<path d="M0 0 C1.98 0 3.96 0 6 0 C6.33 1.65 6.66 3.3 7 5 C6.01 5.33 5.02 5.66 4 6 C4.66 6.33 5.32 6.66 6 7 C5.01 9.97 4.02 12.94 3 16 C2.34 16 1.68 16 1 16 C1 16.66 1 17.32 1 18 C-2 17 -2 17 -4 15 C-3.34 15 -2.68 15 -2 15 C-2 13.02 -2 11.04 -2 9 C-0.68 8.34 0.64 7.68 2 7 C1.67 6.401875 1.34 5.80375 1 5.1875 C0 3 0 3 0 0 Z " fill="#6A6A6A" transform="translate(297,380)"/>
<path d="M0 0 C1.32 0 2.64 0 4 0 C6.125 6.625 6.125 6.625 5 10 C5 10.99 5 11.98 5 13 C1.77208445 15.1519437 0.71599191 15.20086443 -3 15 C-1.52307692 8.35384615 -1.52307692 8.35384615 1.125 6.5625 C2.053125 6.2840625 2.053125 6.2840625 3 6 C2.01 5.67 1.02 5.34 0 5 C0 3.35 0 1.7 0 0 Z " fill="#595959" transform="translate(316,349)"/>
<path d="M0 0 C4.72254335 1.49132948 4.72254335 1.49132948 6.125 4.0625 C6.41375 4.701875 6.7025 5.34125 7 6 C7.99 6.33 8.98 6.66 10 7 C6.52692308 13.82211538 6.52692308 13.82211538 3.859375 14.72265625 C3.24578125 14.81417969 2.6321875 14.90570313 2 15 C1.92652344 14.06027344 1.92652344 14.06027344 1.8515625 13.1015625 C1.77679688 12.28429687 1.70203125 11.46703125 1.625 10.625 C1.55539062 9.81289063 1.48578125 9.00078125 1.4140625 8.1640625 C1.17107412 5.79665809 1.17107412 5.79665809 -1 4 C-0.625 1.875 -0.625 1.875 0 0 Z " fill="#212121" transform="translate(322,369)"/>
<path d="M0 0 C0.33 0 0.66 0 1 0 C1 11.88 1 23.76 1 36 C-3.62 36 -8.24 36 -13 36 C-12.01 35.34 -11.02 34.68 -10 34 C-11.65 33.67 -13.3 33.34 -15 33 C-15 32.67 -15 32.34 -15 32 C-11.37 32 -7.74 32 -4 32 C-4 32.66 -4 33.32 -4 34 C-2.68 34.33 -1.36 34.66 0 35 C0 23.45 0 11.9 0 0 Z " fill="#C3C3C3" transform="translate(687,377)"/>
<path d="M0 0 C2.36810318 0.94724127 3.75207953 1.65291134 5.25 3.75 C6.20357504 6.61072512 6.19545085 9.00308693 6 12 C5.67 12.66 5.34 13.32 5 14 C5.66 14.33 6.32 14.66 7 15 C5.35 15.66 3.7 16.32 2 17 C1.67 16.34 1.34 15.68 1 15 C1.66 14.67 2.32 14.34 3 14 C2.67 12.68 2.34 11.36 2 10 C1.54625 10.825 1.0925 11.65 0.625 12.5 C0.08875 13.325 -0.4475 14.15 -1 15 C-1.66 15 -2.32 15 -3 15 C-3.3125 12.75 -3.3125 12.75 -3 10 C-0.5 7.6875 -0.5 7.6875 2 6 C1.34 4.02 0.68 2.04 0 0 Z " fill="#A6A6A6" transform="translate(304,340)"/>
<path d="M0 0 C1.65 0 3.3 0 5 0 C5 0.66 5 1.32 5 2 C5.99 2.33 6.98 2.66 8 3 C8 6.10551666 7.4606285 7.35261084 6 10 C6 9.34 6 8.68 6 8 C3.525 9.485 3.525 9.485 1 11 C-0.5625 8.6875 -0.5625 8.6875 -2 6 C-1.67 5.01 -1.34 4.02 -1 3 C-0.34 3 0.32 3 1 3 C0.67 2.01 0.34 1.02 0 0 Z " fill="#7F7F7F" transform="translate(301,368)"/>
<path d="M0 0 C1.32 0.33 2.64 0.66 4 1 C2.25 7.75 2.25 7.75 0 10 C-0.7115625 11.051875 -0.7115625 11.051875 -1.4375 12.125 C-1.953125 12.74375 -2.46875 13.3625 -3 14 C-3.99 14 -4.98 14 -6 14 C-6.33 13.01 -6.66 12.02 -7 11 C-6.07421875 9.31640625 -6.07421875 9.31640625 -4.6875 7.5625 C-2.82542646 5.12111469 -1.24386887 2.8269747 0 0 Z " fill="#72747B" transform="translate(660,355)"/>
<path d="M0 0 C1.32 0 2.64 0 4 0 C4 0.66 4 1.32 4 2 C3.01 2 2.02 2 1 2 C0.855625 2.78375 0.71125 3.5675 0.5625 4.375 C0 7 0 7 -1 9 C3.60742865 7.78955868 3.60742865 7.78955868 8 6 C8.75 7.6875 8.75 7.6875 9 10 C7.0625 12.75 7.0625 12.75 5 15 C4.67 14.01 4.34 13.02 4 12 C0.99152582 10.77479736 0.99152582 10.77479736 -2 10 C-1.979375 9.21625 -1.95875 8.4325 -1.9375 7.625 C-1.81315937 5.01885039 -1.81315937 5.01885039 -3 3 C-2.34 3 -1.68 3 -1 3 C-0.67 2.01 -0.34 1.02 0 0 Z " fill="#060606" transform="translate(314,355)"/>
<path d="M0 0 C0.66 0.33 1.32 0.66 2 1 C2.78125 3.546875 2.78125 3.546875 3.5 6.75 C4.3893007 10.67452265 5.41016558 14.29952333 7 18 C6.01 18 5.02 18 4 18 C4 16.68 4 15.36 4 14 C3.030625 13.87625 2.06125 13.7525 1.0625 13.625 C0.051875 13.41875 -0.95875 13.2125 -2 13 C-2.33 12.34 -2.66 11.68 -3 11 C-2.71125 10.443125 -2.4225 9.88625 -2.125 9.3125 C-0.64514296 6.27057165 -0.38529988 3.33926563 0 0 Z " fill="#6E6E6E" transform="translate(323,357)"/>
<path d="M0 0 C0.33 0.66 0.66 1.32 1 2 C3.64 1.34 6.28 0.68 9 0 C8.34 1.65 7.68 3.3 7 5 C6.34 4.67 5.68 4.34 5 4 C4.01 5.485 4.01 5.485 3 7 C0.03 6.505 0.03 6.505 -3 6 C-3.99 7.485 -3.99 7.485 -5 9 C-8.125 9.1875 -8.125 9.1875 -11 9 C-10.2890625 7.078125 -10.2890625 7.078125 -9 5 C-6.8359375 4.171875 -6.8359375 4.171875 -4.375 3.75 C-3.14910156 3.52570313 -3.14910156 3.52570313 -1.8984375 3.296875 C-1.27195312 3.19890625 -0.64546875 3.1009375 0 3 C0 2.01 0 1.02 0 0 Z " fill="#676971" transform="translate(668,365)"/>
<path d="M0 0 C1.5 1 1.5 1 3 3 C3.27345479 5.71846235 3.13491285 8.25677199 3 11 C2.34 11 1.68 11 1 11 C0.67 12.65 0.34 14.3 0 16 C-1.5625 14.25 -1.5625 14.25 -3 12 C-2.625 10.1875 -2.625 10.1875 -2 8 C-2.27313343 5.65885633 -2.59802999 3.32249342 -3 1 C-2.01 0.67 -1.02 0.34 0 0 Z " fill="#111111" transform="translate(323,346)"/>
<path d="M0 0 C4.62609198 -0.3227506 7.28026121 0.15549386 11 3 C11 3.66 11 4.32 11 5 C10.01 5.495 10.01 5.495 9 6 C9.33 7.32 9.66 8.64 10 10 C8 8.625 8 8.625 6 7 C6 6.34 6 5.68 6 5 C5.01 5 4.02 5 3 5 C2.67 5.99 2.34 6.98 2 8 C2 7.01 2 6.02 2 5 C1.34 5 0.68 5 0 5 C0 3.35 0 1.7 0 0 Z " fill="#989898" transform="translate(317,325)"/>
<path d="M0 0 C1.65 0 3.3 0 5 0 C5.33 0.66 5.66 1.32 6 2 C7.32 1.34 8.64 0.68 10 0 C10.33 0.99 10.66 1.98 11 3 C10.34 3 9.68 3 9 3 C9.33 3.99 9.66 4.98 10 6 C8.5625 9.1875 8.5625 9.1875 7 12 C5.68 11.34 4.36 10.68 3 10 C3.99 9.34 4.98 8.68 6 8 C5.67 7.01 5.34 6.02 5 5 C3.68 5.33 2.36 5.66 1 6 C0.67 4.02 0.34 2.04 0 0 Z " fill="#292929" transform="translate(297,376)"/>
<path d="M0 0 C1.98 0.99 1.98 0.99 4 2 C4.33 2.99 4.66 3.98 5 5 C6.62652316 6.70586575 8.29006566 8.3777546 10 10 C2.25 10.125 2.25 10.125 0 9 C0 6.03 0 3.06 0 0 Z " fill="#FBFBFB" transform="translate(276,374)"/>
<path d="M0 0 C0.33 0 0.66 0 1 0 C1.02712066 1.43739513 1.04645067 2.87493863 1.0625 4.3125 C1.07410156 5.11300781 1.08570313 5.91351563 1.09765625 6.73828125 C1 9 1 9 0 12 C-2.64 12.33 -5.28 12.66 -8 13 C-6.68 14.65 -5.36 16.3 -4 18 C-4.99 18 -5.98 18 -7 18 C-7 17.34 -7 16.68 -7 16 C-8.32 16.33 -9.64 16.66 -11 17 C-10.625 14.0625 -10.625 14.0625 -10 11 C-7.53925394 9.76962697 -5.7202437 10 -3 10 C-1.51129729 8.51129729 -1.70656197 7.0656197 -1.5 5 C-1.11111111 1.11111111 -1.11111111 1.11111111 0 0 Z " fill="#4C4E57" transform="translate(641,358)"/>
<path d="M0 0 C0.33 0.66 0.66 1.32 1 2 C3.52733235 2.65555119 3.52733235 2.65555119 6 3 C6 5.64 6 8.28 6 11 C3.66666667 11 1.33333333 11 -1 11 C-0.67 7.37 -0.34 3.74 0 0 Z " fill="#3F3F3F" transform="translate(310,343)"/>
<path d="M0 0 C-0.66 0 -1.32 0 -2 0 C-2 0.66 -2 1.32 -2 2 C-4.53954308 2.53384694 -7.0806935 3.05230194 -9.625 3.5625 C-10.33785156 3.71396484 -11.05070313 3.86542969 -11.78515625 4.02148438 C-16.16017964 4.8844477 -19.58061174 5.05256724 -24 4 C-20.25381962 1.76594972 -16.23042921 1.09037783 -12 0.3125 C-11.2884375 0.17005859 -10.576875 0.02761719 -9.84375 -0.11914062 C-6.31357087 -0.78104921 -3.41163242 -1.32378445 0 0 Z " fill="#D3D3D3" transform="translate(207,211)"/>
<path d="M0 0 C3.96502948 0.45057153 7.35465276 1.39175857 11 3 C10.67 3.99 10.34 4.98 10 6 C7.36 6 4.72 6 2 6 C2 5.34 2 4.68 2 4 C1.34 4 0.68 4 0 4 C-0.33 3.01 -0.66 2.02 -1 1 C-0.67 0.67 -0.34 0.34 0 0 Z " fill="#FCFCFC" transform="translate(280,372)"/>
<path d="M0 0 C0.66 0.33 1.32 0.66 2 1 C2 1.66 2 2.32 2 3 C4.64 2.67 7.28 2.34 10 2 C9.67 2.66 9.34 3.32 9 4 C8.34 4 7.68 4 7 4 C6.67 6.97 6.34 9.94 6 13 C5.443125 12.175 4.88625 11.35 4.3125 10.5 C2.25072867 7.7254586 2.25072867 7.7254586 -0.75 7.6875 C-1.4925 7.790625 -2.235 7.89375 -3 8 C-2.2575 7.4121875 -2.2575 7.4121875 -1.5 6.8125 C0.45593143 4.44908285 0.24207973 2.98564997 0 0 Z " fill="#3E3E3E" transform="translate(414,358)"/>
<path d="M0 0 C0 5.22580526 -4.49244228 8.408929 -8 12 C-11.81987275 15.58628341 -15.78687067 18.88675842 -20 22 C-20.66 21.67 -21.32 21.34 -22 21 C-20.89591797 20.00419922 -20.89591797 20.00419922 -19.76953125 18.98828125 C-18.79371094 18.10527344 -17.81789063 17.22226562 -16.8125 16.3125 C-15.84957031 15.44238281 -14.88664062 14.57226562 -13.89453125 13.67578125 C-11.19286575 11.1782902 -8.58395756 8.61841033 -6 6 C-4 4 -2 2 0 0 Z " fill="#CBCBCB" transform="translate(364,244)"/>
<path d="M0 0 C1.65 0 3.3 0 5 0 C6.04449911 3.13349732 5.93423645 3.98968256 5 7 C0.25 8.125 0.25 8.125 -2 7 C-1.34 4.69 -0.68 2.38 0 0 Z " fill="#252732" transform="translate(653,400)"/>
<path d="M0 0 C0.66 0.33 1.32 0.66 2 1 C1.25 6.75 1.25 6.75 -1 9 C-2.32 9 -3.64 9 -5 9 C-5.33 9.66 -5.66 10.32 -6 11 C-5.62671065 5.64951939 -4.0042343 3.49087093 0 0 Z " fill="#A2A3A7" transform="translate(615,359)"/>
<path d="M0 0 C1.32 0.33 2.64 0.66 4 1 C3.01 1.495 3.01 1.495 2 2 C2 5.63 2 9.26 2 13 C2.66 13.33 3.32 13.66 4 14 C3.67 13.01 3.34 12.02 3 11 C5.97 11.495 5.97 11.495 9 12 C9 12.66 9 13.32 9 14 C8.360625 14.28875 7.72125 14.5775 7.0625 14.875 C4.84793921 15.82823451 4.84793921 15.82823451 4 18 C3.01 17.34 2.02 16.68 1 16 C0.67 16.99 0.34 17.98 0 19 C0 12.73 0 6.46 0 0 Z " fill="#777777" transform="translate(275,358)"/>
<path d="M0 0 C0.66 0.33 1.32 0.66 2 1 C-7.41002278 11.55808656 -7.41002278 11.55808656 -12 16 C-12.99 15.67 -13.98 15.34 -15 15 C-10.05 10.05 -5.1 5.1 0 0 Z " fill="#DCDCDC" transform="translate(318,418)"/>
<path d="M0 0 C2.64 0 5.28 0 8 0 C8 0.66 8 1.32 8 2 C9.98 2 11.96 2 14 2 C14 2.33 14 2.66 14 3 C7.8323971 4.09857724 1.81584877 4.11539104 -4.4375 4.0625 C-5.45521484 4.05798828 -6.47292969 4.05347656 -7.52148438 4.04882812 C-10.01438509 4.03712437 -12.50716074 4.02072848 -15 4 C-15 3.67 -15 3.34 -15 3 C-6.585 2.505 -6.585 2.505 2 2 C1.34 1.34 0.68 0.68 0 0 Z " fill="#C1C1C3" transform="translate(615,409)"/>
<path d="M0 0 C-0.99 0.495 -0.99 0.495 -2 1 C-2 1.66 -2 2.32 -2 3 C-7.61 3 -13.22 3 -19 3 C-14.39282368 -1.60717632 -6.11311035 -0.09789678 0 0 Z " fill="#BCBCBC" transform="translate(302,410)"/>
<path d="M0 0 C1.2065625 0.0309375 1.2065625 0.0309375 2.4375 0.0625 C1.1175 0.3925 -0.2025 0.7225 -1.5625 1.0625 C-1.088125 2.155625 -0.61375 3.24875 -0.125 4.375 C0.83937809 6.59726255 1.66916828 8.75750485 2.4375 11.0625 C2.1075 11.7225 1.7775 12.3825 1.4375 13.0625 C0.7775 13.0625 0.1175 13.0625 -0.5625 13.0625 C-0.5625 14.0525 -0.5625 15.0425 -0.5625 16.0625 C-1.2225 15.7325 -1.8825 15.4025 -2.5625 15.0625 C-2.35625 14.485 -2.15 13.9075 -1.9375 13.3125 C-1.33504298 11.05790491 -1.33504298 11.05790491 -2.5 9.1875 C-3.90534123 6.37681753 -3.76914304 4.16214553 -3.5625 1.0625 C-2.5625 0.0625 -2.5625 0.0625 0 0 Z " fill="#484848" transform="translate(314.5625,398.9375)"/>
<path d="M0 0 C1.65 0 3.3 0 5 0 C6.0625 1.8125 6.0625 1.8125 7 4 C6.67 4.99 6.34 5.98 6 7 C1.25 6.125 1.25 6.125 -1 5 C-0.67 3.35 -0.34 1.7 0 0 Z " fill="#DBDBDB" transform="translate(285,368)"/>
<path d="M0 0 C0.350625 0.66 0.70125 1.32 1.0625 2 C2.96557142 4.41103961 2.96557142 4.41103961 6.6875 4.25 C7.780625 4.1675 8.87375 4.085 10 4 C8.625 5.5 8.625 5.5 7 7 C6.34 7 5.68 7 5 7 C5.33 9.31 5.66 11.62 6 14 C0 8 0 8 -0.09765625 6.15234375 C-0.06510417 4.1015625 -0.03255208 2.05078125 0 0 Z " fill="#2F2F2F" transform="translate(64,362)"/>
<path d="M0 0 C0.66 0.66 1.32 1.32 2 2 C1.60167969 2.85271484 1.60167969 2.85271484 1.1953125 3.72265625 C-0.50483206 7.43939563 -2.10279889 11.03484893 -3.125 15 C-3.41375 15.99 -3.7025 16.98 -4 18 C-4.66 18.33 -5.32 18.66 -6 19 C-5.55230183 12.95607475 -4.49961114 4.49961114 0 0 Z " fill="#CDCDCD" transform="translate(102,285)"/>
<path d="M0 0 C1.98 0 3.96 0 6 0 C4.74194623 4.50802601 3.09592835 7.4912812 0 11 C0 7.37 0 3.74 0 0 Z " fill="#090909" transform="translate(327,393)"/>
<path d="M0 0 C5.19209404 -0.21192221 9.126739 0.4087311 14 2 C13.01 2.495 13.01 2.495 12 3 C11.67 3.66 11.34 4.32 11 5 C9.02 4.34 7.04 3.68 5 3 C4.01 3.99 3.02 4.98 2 6 C2 4.35 2 2.7 2 1 C1.34 0.67 0.68 0.34 0 0 Z " fill="#7C7C7C" transform="translate(298,326)"/>
<path d="M0 0 C1.32 0.66 2.64 1.32 4 2 C3.375 4.4375 3.375 4.4375 2 7 C-1.125 7.8125 -1.125 7.8125 -4 8 C-2.87548273 5.0280615 -1.77706209 2.66559313 0 0 Z " fill="#818389" transform="translate(632,354)"/>
<path d="M0 0 C0.33 0 0.66 0 1 0 C1 7.92 1 15.84 1 24 C0.67 24 0.34 24 0 24 C0 19.71 0 15.42 0 11 C-0.99 10.67 -1.98 10.34 -3 10 C-2.67 8.68 -2.34 7.36 -2 6 C-1.34 6 -0.68 6 0 6 C0 4.02 0 2.04 0 0 Z " fill="#919191" transform="translate(687,307)"/>
<path d="M0 0 C0.99 0.33 1.98 0.66 3 1 C3.33 2.65 3.66 4.3 4 6 C3.38125 6.12375 2.7625 6.2475 2.125 6.375 C-0.19120832 6.87197356 -0.19120832 6.87197356 -2 9 C-2.33 8.01 -2.66 7.02 -3 6 C-2.67 5.34 -2.34 4.68 -2 4 C-2.66 3.67 -3.32 3.34 -4 3 C-2.1875 1.4375 -2.1875 1.4375 0 0 Z " fill="#5F6168" transform="translate(644,392)"/>
<path d="M0 0 C2.31 0 4.62 0 7 0 C8 3 8 3 6.78515625 5.69921875 C6.21667969 6.68535156 5.64820313 7.67148437 5.0625 8.6875 C4.49660156 9.68136719 3.93070312 10.67523438 3.34765625 11.69921875 C2.68056641 12.83810547 2.68056641 12.83810547 2 14 C1.34 13.34 0.68 12.68 0 12 C1.98 8.37 3.96 4.74 6 1 C4.02 1 2.04 1 0 1 C0 0.67 0 0.34 0 0 Z " fill="#CBCBCB" transform="translate(327,392)"/>
<path d="M0 0 C1.98 0 3.96 0 6 0 C6.33 1.65 6.66 3.3 7 5 C6.01 5.33 5.02 5.66 4 6 C4.66 6.33 5.32 6.66 6 7 C6 7.66 6 8.32 6 9 C5.01 9 4.02 9 3 9 C0 3.375 0 3.375 0 0 Z " fill="#727272" transform="translate(297,380)"/>
<path d="M0 0 C0.33 0.66 0.66 1.32 1 2 C1.99 2 2.98 2 4 2 C4.33 3.65 4.66 5.3 5 7 C3.35 7.33 1.7 7.66 0 8 C-2 5 -2 5 -1.6875 2.875 C-1 1 -1 1 0 0 Z " fill="#32353E" transform="translate(611,377)"/>
<path d="M0 0 C1.98 0.66 3.96 1.32 6 2 C5.67 3.98 5.34 5.96 5 8 C4.34 7.01 3.68 6.02 3 5 C2.566875 5.495 2.13375 5.99 1.6875 6.5 C0 8 0 8 -3 8 C-1.84826645 5.53199953 -0.95216435 3.95216435 1 2 C0.67 1.34 0.34 0.68 0 0 Z " fill="#8C8C8C" transform="translate(314,368)"/>
<path d="M0 0 C0.33 0 0.66 0 1 0 C1.33 1.65 1.66 3.3 2 5 C2.99 5 3.98 5 5 5 C5 6.32 5 7.64 5 9 C4.34 9.66 3.68 10.32 3 11 C1.35 10.67 -0.3 10.34 -2 10 C-1.34 6.7 -0.68 3.4 0 0 Z " fill="#A3A4A9" transform="translate(665,342)"/>
<path d="M0 0 C2.475 0.99 2.475 0.99 5 2 C4.814375 2.5775 4.62875 3.155 4.4375 3.75 C3.95976454 6.20692525 4.24270636 7.64397534 5 10 C4.01 10.495 4.01 10.495 3 11 C-0.51460674 4.27640449 -0.51460674 4.27640449 -1 1 C-0.67 0.67 -0.34 0.34 0 0 Z " fill="#090909" transform="translate(322,369)"/>
<path d="M0 0 C0.33 0.66 0.66 1.32 1 2 C1.66 2.33 2.32 2.66 3 3 C2.34 3 1.68 3 1 3 C1 3.99 1 4.98 1 6 C0.34 6 -0.32 6 -1 6 C-1 6.66 -1 7.32 -1 8 C-2.98 8.99 -2.98 8.99 -5 10 C-5.3125 7.8125 -5.3125 7.8125 -5 5 C-2.5 2.1875 -2.5 2.1875 0 0 Z " fill="#151515" transform="translate(316,325)"/>
<path d="M0 0 C3.63 0 7.26 0 11 0 C11 0.66 11 1.32 11 2 C12.32 2.66 13.64 3.32 15 4 C10.71 4 6.42 4 2 4 C2.99 3.34 3.98 2.68 5 2 C3.35 1.67 1.7 1.34 0 1 C0 0.67 0 0.34 0 0 Z " fill="#CECFD0" transform="translate(672,409)"/>
<path d="M0 0 C1.32 0 2.64 0 4 0 C4 0.66 4 1.32 4 2 C4.66 2.33 5.32 2.66 6 3 C5.67 4.98 5.34 6.96 5 9 C2.5 6.75 2.5 6.75 0 4 C0 2.68 0 1.36 0 0 Z " fill="#D5D5D5" transform="translate(313,400)"/>
<path d="M0 0 C0.66 0.33 1.32 0.66 2 1 C2 1.66 2 2.32 2 3 C3.98 2.67 5.96 2.34 8 2 C7.54625 2.4125 7.0925 2.825 6.625 3.25 C4.94049626 5.06408095 4.00734029 6.75285627 3 9 C0.525 8.01 0.525 8.01 -2 7 C-1.34 4.69 -0.68 2.38 0 0 Z " fill="#07070A" transform="translate(619,386)"/>
<path d="M0 0 C2.375 0.6875 2.375 0.6875 5 2 C6.3125 4.625 6.3125 4.625 7 7 C5.02 7.99 5.02 7.99 3 9 C2.33333333 7 1.66666667 5 1 3 C-0.32 3.99 -1.64 4.98 -3 6 C-1.125 1.125 -1.125 1.125 0 0 Z " fill="#919298" transform="translate(628,379)"/>
<path d="M0 0 C0.33 0 0.66 0 1 0 C1 8.25 1 16.5 1 25 C-0.32 24.67 -1.64 24.34 -3 24 C-2.34 23.34 -1.68 22.68 -1 22 C-0.62948007 19.6754661 -0.62948007 19.6754661 -0.5859375 16.9921875 C-0.54726563 16.00605469 -0.50859375 15.01992188 -0.46875 14.00390625 C-0.4378125 12.97136719 -0.406875 11.93882812 -0.375 10.875 C-0.33632813 9.83472656 -0.29765625 8.79445313 -0.2578125 7.72265625 C-0.16335234 5.14861689 -0.07778786 2.57458845 0 0 Z " fill="#CACBCB" transform="translate(687,347)"/>
<path d="M0 0 C0 0.66 0 1.32 0 2 C-2.08203125 3.9453125 -2.08203125 3.9453125 -4.8125 6.125 C-6.15248047 7.21167969 -6.15248047 7.21167969 -7.51953125 8.3203125 C-10 10 -10 10 -13 10 C-10.15074359 6.01104102 -5.37644015 0 0 0 Z " fill="#E7E7E7" transform="translate(145,234)"/>
<path d="M0 0 C1.32 0 2.64 0 4 0 C3.67 2.31 3.34 4.62 3 7 C1.35 7 -0.3 7 -2 7 C-1.34 4.69 -0.68 2.38 0 0 Z " fill="#EAEAEA" transform="translate(315,357)"/>
<path d="M0 0 C11.52164009 -0.18451025 11.52164009 -0.18451025 17 1 C16.67 1.66 16.34 2.32 16 3 C13.67843403 3.40729228 11.3431213 3.74438677 9 4 C9 3.34 9 2.68 9 2 C6.03 1.67 3.06 1.34 0 1 C0 0.67 0 0.34 0 0 Z " fill="#6D6F76" transform="translate(661,409)"/>
<path d="M0 0 C2 0.25 2 0.25 4 1 C5 4 5 4 4.0625 6.1875 C3.5365625 7.0846875 3.5365625 7.0846875 3 8 C2.01 7.67 1.02 7.34 0 7 C-1 4 -1 4 -1 1 C-0.67 0.67 -0.34 0.34 0 0 Z " fill="#3E414A" transform="translate(663,352)"/>
<path d="M0 0 C2 1 2 1 3 2 C3.33 1.34 3.66 0.68 4 0 C4.66 0.33 5.32 0.66 6 1 C5.01 3.31 4.02 5.62 3 8 C1.68 7.67 0.36 7.34 -1 7 C-0.67 4.69 -0.34 2.38 0 0 Z " fill="#5A5A5A" transform="translate(299,333)"/>
<path d="M0 0 C2.5625 1 2.5625 1 4.375 4.5625 C4.766875 5.696875 5.15875 6.83125 5.5625 8 C4.5725 8 3.5825 8 2.5625 8 C2.5625 6.68 2.5625 5.36 2.5625 4 C1.593125 3.87625 0.62375 3.7525 -0.375 3.625 C-1.385625 3.41875 -2.39625 3.2125 -3.4375 3 C-3.7675 2.34 -4.0975 1.68 -4.4375 1 C-2.4375 0 -2.4375 0 0 0 Z " fill="#505050" transform="translate(324.4375,367)"/>
<path d="M0 0 C0.66 0 1.32 0 2 0 C0.6302836 3.99500618 -1.25722422 6.80009492 -4 10 C-4.99 9.67 -5.98 9.34 -7 9 C-5.88266271 7.49428343 -4.75589965 5.99555708 -3.625 4.5 C-2.99851562 3.6646875 -2.37203125 2.829375 -1.7265625 1.96875 C-1.15679687 1.3190625 -0.58703125 0.669375 0 0 Z " fill="#DBDBDB" transform="translate(121,254)"/>
<path d="M0 0 C5.94 1.485 5.94 1.485 12 3 C11.34 3.66 10.68 4.32 10 5 C6.17226914 4.57469657 2.6243277 3.26430036 -1 2 C-0.67 1.34 -0.34 0.68 0 0 Z " fill="#C9C9C9" transform="translate(176,458)"/>
<path d="M0 0 C1.32 0.99 2.64 1.98 4 3 C2.02 5.97 2.02 5.97 0 9 C-0.66 8.67 -1.32 8.34 -2 8 C-2.625 5.4375 -2.625 5.4375 -3 3 C-2.34 3 -1.68 3 -1 3 C-0.67 2.01 -0.34 1.02 0 0 Z " fill="#1A1A1A" transform="translate(302,328)"/>
<path d="M0 0 C0.66 0.33 1.32 0.66 2 1 C-0.19471406 5.51135667 -2.41173718 7.06273348 -7 9 C-5.64978174 4.58110387 -3.73884332 2.65654657 0 0 Z " fill="#111111" transform="translate(302,293)"/>
<path d="M0 0 C-2.97 1.65 -5.94 3.3 -9 5 C-9.66 4.34 -10.32 3.68 -11 3 C-4.5 -1.125 -4.5 -1.125 0 0 Z " fill="#D8D8D8" transform="translate(166,223)"/>
<path d="M0 0 C0.66 0 1.32 0 2 0 C2 0.66 2 1.32 2 2 C2.66 2.33 3.32 2.66 4 3 C3.38125 3.28875 2.7625 3.5775 2.125 3.875 C-0.13325765 4.93720042 -0.13325765 4.93720042 -2 7 C-2.66 7 -3.32 7 -4 7 C-2.92598892 4.08482708 -2.22189824 2.22189824 0 0 Z " fill="#373A43" transform="translate(644,352)"/>
<path d="M0 0 C0.93423645 3.01031744 1.04449911 3.86650268 0 7 C0.66 7.33 1.32 7.66 2 8 C0.35 8.66 -1.3 9.32 -3 10 C-3.33 9.34 -3.66 8.68 -4 8 C-3.34 7.67 -2.68 7.34 -2 7 C-2.04125 6.21625 -2.0825 5.4325 -2.125 4.625 C-2 2 -2 2 0 0 Z " fill="#8A8A8A" transform="translate(309,347)"/>
<path d="M0 0 C0 3.96130371 -1.34877125 4.82914401 -4 7.6875 C-4.7425 8.49574219 -5.485 9.30398437 -6.25 10.13671875 C-6.8275 10.75160156 -7.405 11.36648437 -8 12 C-8 8.24111186 -7.049166 7.58681685 -4.5625 4.875 C-3.92441406 4.17117187 -3.28632813 3.46734375 -2.62890625 2.7421875 C-1.76410115 1.81724008 -0.89538137 0.89538137 0 0 Z " fill="#BCBCBC" transform="translate(364,244)"/>
<path d="M0 0 C1.2065625 0.0309375 1.2065625 0.0309375 2.4375 0.0625 C2.1075 1.7125 1.7775 3.3625 1.4375 5.0625 C0.4475 5.0625 -0.5425 5.0625 -1.5625 5.0625 C-2.2225 3.7425 -2.8825 2.4225 -3.5625 1.0625 C-2.5625 0.0625 -2.5625 0.0625 0 0 Z " fill="#FAFAFA" transform="translate(288.5625,378.9375)"/>
<path d="M0 0 C0.33 0.66 0.66 1.32 1 2 C1.99 2.33 2.98 2.66 4 3 C4 6 4 6 2 9 C1.34 8.67 0.68 8.34 0 8 C0 5.36 0 2.72 0 0 Z " fill="#5B5D65" transform="translate(654,375)"/>
<path d="M0 0 C0.33 1.32 0.66 2.64 1 4 C1.66 4 2.32 4 3 4 C3 5.32 3 6.64 3 8 C1.68 8.33 0.36 8.66 -1 9 C-0.67 7.35 -0.34 5.7 0 4 C-0.66 3.67 -1.32 3.34 -2 3 C-1.34 2.01 -0.68 1.02 0 0 Z " fill="#0F0F0F" transform="translate(317,372)"/>
<path d="M0 0 C-0.33 0.99 -0.66 1.98 -1 3 C-3.64 3 -6.28 3 -9 3 C-9 2.34 -9 1.68 -9 1 C-5.846632 0.29925156 -3.27275026 0 0 0 Z " fill="#FFFFFF" transform="translate(309,410)"/>
<path d="M0 0 C1.5 1 1.5 1 3 3 C3.27345479 5.71846235 3.13491285 8.25677199 3 11 C2.34 10.34 1.68 9.68 1 9 C1.33 8.34 1.66 7.68 2 7 C1.34 7 0.68 7 0 7 C0 4.69 0 2.38 0 0 Z " fill="#757575" transform="translate(323,346)"/>
<path d="M0 0 C2.0625 1.75 2.0625 1.75 4 4 C3.75 6.25 3.75 6.25 3 8 C2.34 8 1.68 8 1 8 C0.01 8.495 0.01 8.495 -1 9 C-1 6 -1 6 1 4 C0.6814823 1.89179203 0.6814823 1.89179203 0 0 Z " fill="#272727" transform="translate(303,340)"/>
<path d="M0 0 C2.1875 0.3125 2.1875 0.3125 4 1 C4 1.66 4 2.32 4 3 C2.35 3.66 0.7 4.32 -1 5 C-1.66 4.34 -2.32 3.68 -3 3 C-1.75 1.4375 -1.75 1.4375 0 0 Z " fill="#65676E" transform="translate(637,389)"/>
<path d="M0 0 C1.32 0.33 2.64 0.66 4 1 C4 1.99 4 2.98 4 4 C2.02 4 0.04 4 -2 4 C-1.34 2.68 -0.68 1.36 0 0 Z " fill="#CBCCCE" transform="translate(659,370)"/>
<path d="M0 0 C0.99 0.33 1.98 0.66 3 1 C2.6875 2.875 2.6875 2.875 2 5 C1.01 5.66 0.02 6.32 -1 7 C-1.66 5.68 -2.32 4.36 -3 3 C-2.01 2.01 -1.02 1.02 0 0 Z " fill="#171A25" transform="translate(654,370)"/>
<path d="M0 0 C-0.04125 0.763125 -0.0825 1.52625 -0.125 2.3125 C-0.22080824 5.22718416 -0.22080824 5.22718416 2 8 C-0.4375 7.3125 -0.4375 7.3125 -3 6 C-3.8125 3.375 -3.8125 3.375 -4 1 C-2 0 -2 0 0 0 Z " fill="#313131" transform="translate(309,364)"/>
<path d="M0 0 C2 3 2 3 2 6 C0.02 6.99 0.02 6.99 -2 8 C-2.33 7.01 -2.66 6.02 -3 5 C-1.5625 2.3125 -1.5625 2.3125 0 0 Z " fill="#0D0D0D" transform="translate(306,349)"/>
<path d="M0 0 C1.65 0 3.3 0 5 0 C5.33 1.65 5.66 3.3 6 5 C4.68 5.33 3.36 5.66 2 6 C2 4.68 2 3.36 2 2 C1.34 1.34 0.68 0.68 0 0 Z " fill="#2A2A2A" transform="translate(324,330)"/>
<path d="M0 0 C1.65 0 3.3 0 5 0 C5 0.99 5 1.98 5 3 C4.34 3 3.68 3 3 3 C3 3.66 3 4.32 3 5 C0 4 0 4 -2 2 C-1.34 2 -0.68 2 0 2 C0 1.34 0 0.68 0 0 Z " fill="#4A4A4A" transform="translate(295,393)"/>
<path d="M0 0 C1.09658936 3.28976808 0.79953138 4.71303767 0 8 C-1.9375 7.625 -1.9375 7.625 -4 7 C-4.33 6.34 -4.66 5.68 -5 5 C-4.01 5 -3.02 5 -2 5 C-1.34 3.35 -0.68 1.7 0 0 Z " fill="#838383" transform="translate(292,379)"/>
<path d="M0 0 C0.66 0 1.32 0 2 0 C2 0.99 2 1.98 2 3 C2.66 3.33 3.32 3.66 4 4 C3.34 4 2.68 4 2 4 C1.67 5.32 1.34 6.64 1 8 C0.34 8 -0.32 8 -1 8 C-0.67 5.36 -0.34 2.72 0 0 Z " fill="#080808" transform="translate(310,346)"/>
<path d="M0 0 C0.33 0.99 0.66 1.98 1 3 C-1.31 4.32 -3.62 5.64 -6 7 C-6 6.01 -6 5.02 -6 4 C-3 1.8125 -3 1.8125 0 0 Z " fill="#0A0A0A" transform="translate(324,279)"/>
<path d="M0 0 C-0.33 1.32 -0.66 2.64 -1 4 C-2.32 4.33 -3.64 4.66 -5 5 C-5.33 4.01 -5.66 3.02 -6 2 C-2.25 0 -2.25 0 0 0 Z " fill="#B8B8B8" transform="translate(323,226)"/>
<path d="M0 0 C2.12038635 2.61514317 4.13091744 5.19637616 6 8 C5.01 8 4.02 8 3 8 C0.8125 5 0.8125 5 -1 2 C-0.67 1.34 -0.34 0.68 0 0 Z " fill="#A5A5A5" transform="translate(45,436)"/>
<path d="M0 0 C0.99 0 1.98 0 3 0 C3.33 1.98 3.66 3.96 4 6 C2.35 5.01 0.7 4.02 -1 3 C-0.67 2.01 -0.34 1.02 0 0 Z " fill="#1A1D27" transform="translate(637,370)"/>
<path d="M0 0 C0.66 1.32 1.32 2.64 2 4 C1.34 4 0.68 4 0 4 C0 5.32 0 6.64 0 8 C-0.99 7.67 -1.98 7.34 -3 7 C-1.125 2.25 -1.125 2.25 0 0 Z " fill="#333333" transform="translate(303,355)"/>
<path d="M0 0 C0.33 0.66 0.66 1.32 1 2 C-5.625 3.25 -5.625 3.25 -9 1 C-5.92677456 0.08941469 -3.19902639 -0.08886184 0 0 Z " fill="#C1C1C1" transform="translate(192,213)"/>
<path d="M0 0 C-0.66 0.66 -1.32 1.32 -2 2 C-4.72869407 1.96712417 -7.2966618 1.43602229 -10 1 C-10 0.67 -10 0.34 -10 0 C-6.33694766 -0.74926071 -3.57644848 -1.2380014 0 0 Z " fill="#C8C8C8" transform="translate(245,464)"/>
<path d="M0 0 C0.99 0 1.98 0 3 0 C2.67 1.65 2.34 3.3 2 5 C1.01 4.67 0.02 4.34 -1 4 C-0.67 2.68 -0.34 1.36 0 0 Z " fill="#C4C4C4" transform="translate(317,392)"/>
<path d="M0 0 C1.65 0 3.3 0 5 0 C5 0.66 5 1.32 5 2 C4.01 2.33 3.02 2.66 2 3 C1.67 3.99 1.34 4.98 1 6 C0.34 6 -0.32 6 -1 6 C-0.67 4.02 -0.34 2.04 0 0 Z " fill="#353535" transform="translate(315,390)"/>
<path d="M0 0 C0.99 0.33 1.98 0.66 3 1 C3.33 2.65 3.66 4.3 4 6 C3.34 6 2.68 6 2 6 C2 5.34 2 4.68 2 4 C1.01 4 0.02 4 -1 4 C-0.67 2.68 -0.34 1.36 0 0 Z " fill="#9B9B9B" transform="translate(312,382)"/>
<path d="M0 0 C0.99 0.33 1.98 0.66 3 1 C3 1.99 3 2.98 3 4 C4.32 3.67 5.64 3.34 7 3 C7 3.66 7 4.32 7 5 C5.35 5.33 3.7 5.66 2 6 C0 3 0 3 0 0 Z " fill="#7E8086" transform="translate(609,379)"/>
<path d="M0 0 C1.32 0.33 2.64 0.66 4 1 C3.67 1.99 3.34 2.98 3 4 C2.34 3.67 1.68 3.34 1 3 C0.67 3.99 0.34 4.98 0 6 C-0.66 6 -1.32 6 -2 6 C-1.34 4.02 -0.68 2.04 0 0 Z " fill="#2B2E38" transform="translate(653,367)"/>
<path d="M0 0 C1.32 0 2.64 0 4 0 C4 0.66 4 1.32 4 2 C3.01 2 2.02 2 1 2 C0.67 3.32 0.34 4.64 0 6 C0 5.34 0 4.68 0 4 C-0.99 3.67 -1.98 3.34 -3 3 C-2.34 3 -1.68 3 -1 3 C-0.67 2.01 -0.34 1.02 0 0 Z " fill="#2E2E2E" transform="translate(314,355)"/>
<path d="M0 0 C1.32 0 2.64 0 4 0 C3.67 1.65 3.34 3.3 3 5 C2.01 5 1.02 5 0 5 C0 3.35 0 1.7 0 0 Z " fill="#E7E7E7" transform="translate(316,349)"/>
<path d="M0 0 C0.33 0 0.66 0 1 0 C1.33 1.65 1.66 3.3 2 5 C2.99 5.33 3.98 5.66 5 6 C3.02 6.99 1.04 7.98 -1 9 C-0.67 6.03 -0.34 3.06 0 0 Z " fill="#818287" transform="translate(665,342)"/>
</svg>
